<ttFont>
          <CharString index="0">
            409 234 rmoveto
            -90 callsubr
            -162 -66 -200 -126 -83 callsubr
            vhcurveto
            -93 callgsubr
            13 57 -90 callgsubr
            return
          </CharString>
          <CharString index="1">
            -96 callgsubr
            hintmask 01110011
            -106 callgsubr
            hintmask 10110011
            -94 callgsubr
            return
          </CharString>
          <CharString index="2">
            rmoveto
            -144 -61 114 152 200 86 249 220 145 62 -112 -153 -199 -89 -251 -219 hvcurveto
            -23 callgsubr
            -167 -57 -234 -137 -120 42 -93 99 164 61 233 134 116 -43 101 -99 hvcurveto
            return
          </CharString>
          <CharString index="3">
            -105 callgsubr
            endchar
          </CharString>
          <CharString index="4">
            hmoveto
            71 500 -66 callsubr
            -16 -54 rlineto
            43 -30 -42 21 -80 callsubr
            hvcurveto
            return
          </CharString>
          <CharString index="5">
            rmoveto
            -138 -100 13 -29 138 75 117 -75 21 29 return
          </CharString>
          <CharString index="6">
            -102 callsubr
            rlineto
            return
          </CharString>
          <CharString index="7">
            265 -5 -105 callsubr
            return
          </CharString>
          <CharString index="8">
            4 -58 rlineto
            11 28 45 10 54 hhcurveto
            69 26 -14 -64 -18 -2 -23 -4 -27 hvcurveto
            return
          </CharString>
          <CharString index="9">
            484 hmoveto
            -101 callgsubr
            return
          </CharString>
          <CharString index="10">
            rmoveto
            -87 -30 -65 -69 -52 27 -34 61 87 30 65 69 52 -27 34 -61 hvcurveto
            -24 -176 rmoveto
            -33 -9 20 26 43 16 43 45 33 9 -20 -26 -43 -16 -43 -45 hvcurveto
            return
          </CharString>
          <CharString index="11">
            -101 callsubr
            hintmask 00110000
            -64 callgsubr
          </CharString>
          <CharString index="12">
            -58 callgsubr
            82 -21 162 -104 callgsubr
            return
          </CharString>
          <CharString index="13">
            rmoveto
            86 28 -18 -86 22 hvcurveto
            56 -224 rlineto
            71 hlineto
            -56 234 -21 90 -12 14 -51 15 rlinecurve
            88 13 62 102 91 vvcurveto
            89 -52 52 -110 vhcurveto
            -182 -68 callgsubr
            0 67 -45 callgsubr
            return
          </CharString>
          <CharString index="14">
            13 2 14 2 17 vhcurveto
            46 331 -68 callsubr
            -48 -343 rlineto
            -2 -14 -1 -14 -12 vvcurveto
            -80 41 -43 67 70 51 39 26 32 vhcurveto
            15 -59 rlineto
            39 -35 callgsubr
            -68 hlineto
            return
          </CharString>
          <CharString index="15">
            -101 callsubr
            hintmask 00011000
            -64 callgsubr
          </CharString>
          <CharString index="16">
            rmoveto
            81 18 34 73 84 hhcurveto
            65 22 -25 -39 -68 -87 -25 -87 -16 -17 1 2 -16 hvcurveto
            return
          </CharString>
          <CharString index="17">
            3 17 5 26 2 18 rrcurveto
            3 18 1 17 16 vvcurveto
            101 -51 63 -92 return
          </CharString>
          <CharString index="18">
            -47 callgsubr
            88 68 hintmask 11001000
            273 -6 rmoveto
            -121 -64 65 131 21 2 23 3 24 hvcurveto
            62 442 -27 callgsubr
            -63 -454 rlineto
            -3 -18 -1 -20 -10 vvcurveto
            -89 44 -50 82 91 67 65 122 17 vhcurveto
            63 454 rlineto
            69 hlineto
            -62 -442 rlineto
            -176 -24 -90 -88 -140 hhcurveto
            hintmask 00110000
            return
          </CharString>
          <CharString index="19">
            rmoveto
            98 701 -68 callsubr
            -81 -582 -229 582 rlineto
            -70 hlineto
            hintmask 01100000
            -98 -28 callgsubr
            79 560 rlineto
            hintmask 10100000
            224 -561 rlineto
            return
          </CharString>
          <CharString index="20">
            rmoveto
            21 -49 -55 14 -50 hhcurveto
            -129 -75 -91 -111 hvcurveto
            -209 265 69 -162 vvcurveto
            -88 -77 -54 -84 -75 -78 42 0 vhcurveto
            -30 -57 rlineto
            -26 35 68 -29 75 hhcurveto
            143 97 106 127 hvcurveto
            211 -266 -77 160 vvcurveto
            64 43 55 79 vhcurveto
            61 80 -32 -2 hhcurveto
            endchar
          </CharString>
          <CharString index="21">
            hstemhm
            -18 callsubr
            hintmask 11001100
            274 445 rmoveto
            -114 -41 -124 -120 -98 27 -44 72 115 46 111 122 104 -33 49 -72 hvcurveto
            -62 -451 rmoveto
            -112 -50 71 134 172 83 139 150 106 59 -70 -141 -164 -79 -141 -157 hvcurveto
            return
          </CharString>
          <CharString index="22">
            273 -6 rmoveto
            140 90 88 176 24 hvcurveto
            62 442 rlineto
            -69 hlineto
            -63 -454 rlineto
            -122 -17 -67 -65 -91 hhcurveto
            -82 -44 50 89 10 1 20 3 18 hvcurveto
            63 454 -31 callgsubr
            -62 -442 rlineto
            -3 -24 -2 -23 -21 vvcurveto
            -131 64 -65 121 vhcurveto
            return
          </CharString>
          <CharString index="23">
            274 445 -76 callsubr
            -62 -451 -20 callsubr
            141 -59 70 -106 -46 callsubr
            hvcurveto
            return
          </CharString>
          <CharString index="24">
            -135 72 -55 101 -57 callsubr
            return
          </CharString>
          <CharString index="25">
            10 callgsubr
            26 400 rmoveto
            -28 -195 rlineto
            return
          </CharString>
          <CharString index="26">
            rmoveto
            -49 124 -31 callsubr
            70 -124 rlineto
            endchar
          </CharString>
          <CharString index="27">
            -61 hhcurveto
            -163 -59 -181 -162 return
          </CharString>
          <CharString index="28">
            -47 callgsubr
            hintmask 11100000
            -98 callsubr
            hintmask 00011000
            return
          </CharString>
          <CharString index="29">
            -27 -64 -32 callsubr
            -56 -70 0 hvcurveto
            25 return
          </CharString>
          <CharString index="30">
            102 -15 callsubr
            -9 -59 rlineto
            131 hlineto
            -58 -413 rlineto
            -89 -12 -25 -81 -65 hhcurveto
            -43 -20 6 3 -14 hvcurveto
            -9 -63 rlineto
            -7 25 26 -4 36 hhcurveto
            95 51 77 141 20 hvcurveto
            69 489 rlineto
            return
          </CharString>
          <CharString index="31">
            rmoveto
            72 33 -49 -104 -122 -46 -111 -115 -72 -27 44 98 120 41 124 114 hvcurveto
            return
          </CharString>
          <CharString index="32">
            9 65 rlineto
            return
          </CharString>
          <CharString index="33">
            -75 callgsubr
            107 42 102 118 67 -23 55 -76 hvcurveto
            return
          </CharString>
          <CharString index="34">
            21 -60 callgsubr
            return
          </CharString>
          <CharString index="35">
            827 rmoveto
            -27 26 rlineto
            0 -31 -38 -26 vhcurveto
            hintmask 00001000
            -78 callsubr
            -26 -61 callgsubr
            hintmask 00010000
            26 66 -73 callgsubr
            return
          </CharString>
          <CharString index="36">
            -43 callgsubr
            hintmask 00010000
            -91 callgsubr
            hintmask 00100000
            -70 callsubr
            endchar
          </CharString>
          <CharString index="37">
            26 65 -73 callgsubr
            return
          </CharString>
          <CharString index="38">
            -26 -45 -59 -18 -56 hhcurveto
            -102 -52 84 135 142 61 224 183 31 54 -5 -18 callgsubr
            21 -48 -34 8 -56 hhcurveto
            -208 -125 -200 -247 return
          </CharString>
          <CharString index="39">
            rlineto
            -67 hlineto
            return
          </CharString>
          <CharString index="40">
            400 500 rmoveto
            68 hlineto
            -10 callgsubr
            -39 hlineto
            -15 59 rlineto
            -26 -32 -51 -39 -70 hhcurveto
            -67 -41 43 80 12 1 14 2 14 hvcurveto
            48 343 -17 callsubr
            return
          </CharString>
          <CharString index="41">
            rlineto
            0 -40 -45 callgsubr
            return
          </CharString>
          <CharString index="42">
            hmoveto
            67 -35 callgsubr
            -67 hlineto
            return
          </CharString>
          <CharString index="43">
            -9 -65 rlineto
            return
          </CharString>
          <CharString index="44">
            151 -10 rmoveto
            -28 -90 -62 -58 -45 -26 19 -52 rcurveline
            80 44 52 61 59 131 225 500 rcurveline
            -75 hlineto
            -174 -420 -55 420 rlineto
            return
          </CharString>
          <CharString index="45">
            21 -65 callgsubr
            return
          </CharString>
          <CharString index="46">
            -73 callsubr
            hstem
            return
          </CharString>
          <CharString index="47">
            47 17 27 39 49 vvcurveto
            49 -27 30 -56 -52 -37 -25 0 vhcurveto
            2 -46 rlineto
            0 36 23 41 30 18 -12 -25 -31 -28 -41 -49 vhcurveto
            endchar
          </CharString>
          <CharString index="48">
            0 65 281 67 222 65 return
          </CharString>
          <CharString index="49">
            15 106 -68 callsubr
            -15 -106 rlineto
            return
          </CharString>
          <CharString index="50">
            51 37 14 21 57 return
          </CharString>
          <CharString index="51">
            9 66 rlineto
            -313 hlineto
            366 577 8 57 rlineto
            -368 -81 callgsubr
            289 hlineto
            -368 -573 -9 -62 rlineto
            endchar
          </CharString>
          <CharString index="52">
            -94 callgsubr
            endchar
          </CharString>
          <CharString index="53">
            -17 callsubr
            27 196 56 54 129 -250 rlineto
            76 hlineto
            -158 297 218 203 rlineto
            -85 hlineto
            -223 -212 return
          </CharString>
          <CharString index="54">
            -81 callgsubr
            endchar
          </CharString>
          <CharString index="55">
            -52 callgsubr
            hstemhm
            return
          </CharString>
          <CharString index="56">
            -122 -141 rlineto
            return
          </CharString>
          <CharString index="57">
            rmoveto
            35 15 -33 -47 -70 -24 -92 -61 -35 -14 32 46 51 16 return
          </CharString>
          <CharString index="58">
            -19 5 -25 hhcurveto
            -55 -64 -25 -89 -13 hvcurveto
            -13 -96 rlineto
            -70 hlineto
            -9 -60 rlineto
            69 hlineto
            -61 -440 -27 callgsubr
            61 return
          </CharString>
          <CharString index="59">
            -29 -27 -62 -40 -49 hhcurveto
            -42 -17 21 46 return
          </CharString>
          <CharString index="60">
            rmoveto
            -75 callsubr
            return
          </CharString>
          <CharString index="61">
            -150 -83 -139 -172 -134 50 -71 112 return
          </CharString>
          <CharString index="62">
            9 callsubr
            -13 -88 -17 callsubr
            -217 -816 rmoveto
            33 -35 52 53 28 59 17 117 rlinecurve
            return
          </CharString>
          <CharString index="63">
            -20 hstemhm
            -43 callsubr
            hintmask 11100110
            return
          </CharString>
          <CharString index="64">
            52 68 238 65 return
          </CharString>
          <CharString index="65">
            -6 64 -37 -65 callgsubr
            return
          </CharString>
          <CharString index="66">
            -21 124 -20 return
          </CharString>
          <CharString index="67">
            -79 callgsubr
            82 -21 162 -20 -4 callsubr
            return
          </CharString>
          <CharString index="68">
            rmoveto
            154 78 161 189 123 -53 75 -105 -154 -78 -161 -189 return
          </CharString>
          <CharString index="69">
            -67 -15 -24 callsubr
            15 -21 callsubr
            return
          </CharString>
          <CharString index="70">
            24 25 46 24 47 hhcurveto
            51 26 -31 -56 -10 -1 -12 -2 -12 hvcurveto
            -46 -326 rlineto
            return
          </CharString>
          <CharString index="71">
            rmoveto
            -26 26 rlineto
            0 return
          </CharString>
          <CharString index="72">
            hlineto
            40 281 rlineto
            return
          </CharString>
          <CharString index="73">
            72 510 -68 callsubr
            -75 -534 -11 -19 callsubr
            endchar
          </CharString>
          <CharString index="74">
            89 -5 66 584 65 return
          </CharString>
          <CharString index="75">
            55 -36 hhcurveto
            -36 return
          </CharString>
          <CharString index="76">
            rlineto
            -76 hlineto
            return
          </CharString>
          <CharString index="77">
            -72 callgsubr
            hintmask 11000000
            return
          </CharString>
          <CharString index="78">
            -21 328 64 244 64 return
          </CharString>
          <CharString index="79">
            60 74 366 73 return
          </CharString>
          <CharString index="80">
            186 397 rmoveto
            24 26 43 25 47 hhcurveto
            51 26 -31 -56 hvcurveto
            return
          </CharString>
          <CharString index="81">
            571 -77 callgsubr
            return
          </CharString>
          <CharString index="82">
            -54 -6 64 173 57 157 65 return
          </CharString>
          <CharString index="83">
            60 -80 hhcurveto
            -44 -43 -29 -35 -27 hvcurveto
            return
          </CharString>
          <CharString index="84">
            -59 rlineto
            39 hlineto
            return
          </CharString>
          <CharString index="85">
            rlineto
            0 -151 -45 callgsubr
            -64 callsubr
            151 hlineto
            -12 return
          </CharString>
          <CharString index="86">
            -47 rlineto
            26 28 31 19 26 hhcurveto
            return
          </CharString>
          <CharString index="87">
            rmoveto
            157 79 141 164 return
          </CharString>
          <CharString index="88">
            -74 -15 -53 -34 -43 rlinecurve
            return
          </CharString>
          <CharString index="89">
            50 69 260 69 return
          </CharString>
          <CharString index="90">
            rlineto
            67 hlineto
            return
          </CharString>
          <CharString index="91">
            rmoveto
            29 31 48 30 39 hhcurveto
            19 16 -3 -3 8 hvcurveto
            return
          </CharString>
          <CharString index="92">
            700 rmoveto
            return
          </CharString>
          <CharString index="93">
            -174 -201 64 415 46 413 64 hstemhm
            return
          </CharString>
          <CharString index="94">
            592 -52 callgsubr
            hstem
            return
          </CharString>
          <CharString index="95">
            21 -21 446 64 -10 -20 return
          </CharString>
          <CharString index="96">
            -21 445 65 return
          </CharString>
          <CharString index="97">
            700 rlineto
            return
          </CharString>
          <CharString index="98">
            rmoveto
            15 103 -68 callsubr
            -15 -103 rlineto
            endchar
          </CharString>
          <CharString index="99">
            hlineto
            7 49 rlineto
            -61 hlineto
            16 116 rlineto
            return
          </CharString>
          <CharString index="100">
            37 259 -31 callgsubr
            -37 -259 rlineto
            return
          </CharString>
          <CharString index="101">
            rmoveto
            -148 hlineto
            74 66 82 72 88 vvcurveto
            return
          </CharString>
          <CharString index="102">
            -57 callsubr
            hvcurveto
            return
          </CharString>
          <CharString index="103">
            hstemhm
            45 69 229 71 return
          </CharString>
          <CharString index="104">
            hvcurveto
            6 50 rmoveto
            return
          </CharString>
          <CharString index="105">
            -321 rmoveto
            28 33 48 39 63 hhcurveto
            return
          </CharString>
          <CharString index="106">
            -188 -200 64 871 65 hstem
            return
          </CharString>
          <CharString index="107">
            -26 -21 670 -20 hstem
            72 -47 rmoveto
            return
          </CharString>
          <CharString index="108">
            -63 11 -49 81 50 -34 -236 rlineto
            return
          </CharString>
          <CharString index="109">
            108 64 10 72 -108 -66 return
          </CharString>
          <CharString index="110">
            20 69 rlineto
            -1 -13 6 -24 hhcurveto
            return
          </CharString>
          <CharString index="111">
            -20 hstemhm
            hintmask 10100000
            return
          </CharString>
          <CharString index="112">
            -29 108 -100 rlineto
            return
          </CharString>
          <CharString index="113">
            44 132 44 hstemhm
            return
          </CharString>
          <CharString index="114">
            65 386 65 return
          </CharString>
          <CharString index="115">
            rmoveto
            -134 return
          </CharString>
          <CharString index="116">
            rmoveto
            -67 hlineto
            return
          </CharString>
        <CharString name=".notdef">
          -304 endchar
        </CharString>
        <CharString name="A">
          -53 callgsubr
          hstem
          -98 callsubr
          endchar
        </CharString>
        <CharString name="AE">
          272 0 65 156 65 60 67 222 65 hstem
          675 hmoveto
          -75 callsubr
          -290 -35 callsubr
          267 -32 callgsubr
          -267 -42 callgsubr
          290 -69 callgsubr
          -393 hlineto
          -392 -28 callgsubr
          128 221 rlineto
          162 hlineto
          -31 -221 rlineto
          -95 286 rmoveto
          184 348 rlineto
          0 -49 -348 0 vhcurveto
          endchar
        </CharString>
        <CharString name="Aacute">
          -53 callgsubr
          93 -79 callsubr
          -42 128 -86 callgsubr
        </CharString>
        <CharString name="Acircumflex">
          27 48 60 65 195 endchar
        </CharString>
        <CharString name="Adieresis">
          27 44 46 65 200 endchar
        </CharString>
        <CharString name="Agrave">
          -53 callgsubr
          94 -79 callsubr
          10 129 -81 callsubr
        </CharString>
        <CharString name="Aring">
          -53 callgsubr
          72 6 callsubr
          232 51 103 51 hintmask 11100000
          -98 callsubr
          hintmask 00011110
          27 348 -97 callsubr
          endchar
        </CharString>
        <CharString name="Atilde">
          -53 callgsubr
          77 58 -3 58 hstemhm
          hintmask 00010000
          459 -72 callsubr
          hintmask 11100000
          -32 -827 rmoveto
          -101 callgsubr
          endchar
        </CharString>
        <CharString name="B">
          34 0 65 278 64 228 65 hstemhm
          415 71 -52 52 -52 71 hintmask 11110000
          57 hmoveto
          174 hlineto
          161 94 103 133 74 -42 60 -79 9 hvcurveto
          hintmask 11100100
          80 10 60 77 92 vvcurveto
          89 -54 53 -116 vhcurveto
          -180 hlineto
          -19 -635 rmoveto
          39 278 rlineto
          106 hlineto
          hintmask 11110000
          93 41 -51 -66 -85 -66 -76 -88 hvcurveto
          -45 570 rmoveto
          115 hlineto
          hintmask 11101000
          69 34 -31 -59 -82 -69 -56 -75 hvcurveto
          -106 hlineto
          endchar
        </CharString>
        <CharString name="C">
          32 -6 65 585 65 hstem
          62 76 vstem
          286 -6 rmoveto
          81 62 32 20 33 hvcurveto
          -10 57 rlineto
          -69 callsubr
          -165 75 -103 149 hvcurveto
          endchar
        </CharString>
        <CharString name="CR">
          -304 endchar
        </CharString>
        <CharString name="Ccedilla">
          32 -161 -21 826 65 hstem
          62 76 vstem
          240 -182 rmoveto
          57 85 15 28 9 65 64 7 49 26 28 17 -10 57 rcurveline
          -69 callsubr
          -154 65 -100 129 -12 hvcurveto
          -9 -64 -9 -18 -38 -65 40 -31 rcurveline
          endchar
        </CharString>
        <CharString name="Crculo0">
          73 -5 66 -66 164 277 40 89 145 -65 65 hstemhm
          50 69 376 68 hintmask 10110110
          247 159 rmoveto
          63 hlineto
          39 277 rlineto
          -63 hlineto
          -31 -441 rmoveto
          213 95 237 213 153 -62 112 -145 -213 -93 -233 -216 hvcurveto
          hintmask 10101110
          -152 61 -114 144 vhcurveto
          -23 callgsubr
          102 45 -101 -116 -167 -82 -200 -148 -103 -43 93 120 155 70 216 159 hvcurveto
          21 -80 9 callsubr
          hintmask 01110110
          -12 -89 -17 callsubr
          endchar
        </CharString>
        <CharString name="D">
          89 0 65 570 65 hstem
          492 78 vstem
          570 434 rmoveto
          157 -94 109 -161 vhcurveto
          -160 -68 callgsubr
          132 hlineto
          239 142 225 209 hvcurveto
          -364 -369 9 callsubr
          80 570 -34 callgsubr
        </CharString>
        <CharString name="Delta">
          57 0 77 623 -20 hstem
          499 hmoveto
          -110 -10 callsubr
          -82 hlineto
          -305 -63 callgsubr
          412 77 rmoveto
          -316 hlineto
          239 547 rlineto
          endchar
        </CharString>
        <CharString name="E">
          -6 -59 callsubr
          hstem
          -102 callgsubr
          endchar
        </CharString>
        <CharString name="Eacute">
          -6 -59 callsubr
          73 -21 124 -20 -99 callgsubr
          hintmask 00011000
          188 752 -86 callgsubr
        </CharString>
        <CharString name="Ecircumflex">
          -5 -59 callsubr
          72 -21 129 -20 -99 callgsubr
          226 880 -92 callsubr
        </CharString>
        <CharString name="Edieresis">
          -6 -59 callsubr
          55 106 -99 callgsubr
          hintmask 00010000
          130 755 -104 callsubr
        </CharString>
        <CharString name="Egrave">
          -6 -59 callsubr
          74 -21 124 -20 -99 callgsubr
          hintmask 00011000
          290 753 -81 callsubr
        </CharString>
        <CharString name="Eth">
          132 0 65 252 65 253 65 hstem
          517 78 vstem
          595 434 rmoveto
          157 -94 109 -161 vhcurveto
          -160 hlineto
          -45 -318 rlineto
          -74 hlineto
          -10 -65 rlineto
          75 hlineto
          -44 -317 rlineto
          132 hlineto
          239 142 225 209 hvcurveto
          -364 -369 9 callsubr
          35 252 rlineto
          158 hlineto
          10 65 rlineto
          -159 hlineto
          36 253 -34 callgsubr
        </CharString>
        <CharString name="Euro">
          73 -6 65 181 65 95 66 179 65 hstem
          102 73 vstem
          179 305 rmoveto
          1 32 6 34 7 29 rrcurveto
          217 hlineto
          11 66 rlineto
          -210 hlineto
          110 40 75 69 98 hhcurveto
          32 54 -6 -18 callgsubr
          21 -47 -34 9 -54 hhcurveto
          -144 -107 -94 -150 -52 hvcurveto
          -79 -81 callgsubr
          70 hlineto
          -7 -28 -4 -37 -3 -31 rrcurveto
          -70 -81 callgsubr
          75 hlineto
          -147 5 76 -99 146 hhcurveto
          82 61 32 20 33 hvcurveto
          -10 52 rlineto
          -15 -37 -60 -24 -63 hhcurveto
          -95 -58 67 114 -7 hvcurveto
          212 hlineto
          10 65 rlineto
          endchar
        </CharString>
        <CharString name="F">
          -35 21 -21 346 67 222 65 hstem
          495 -15 callsubr
          -340 -68 callgsubr
          67 hlineto
          49 346 rlineto
          251 -32 callgsubr
          -251 -42 callgsubr
          273 hlineto
          endchar
        </CharString>
        <CharString name="G">
          88 -6 65 231 65 290 65 hstem
          60 75 vstem
          300 -6 rmoveto
          82 70 34 20 34 hvcurveto
          43 307 rlineto
          -199 -81 callgsubr
          132 hlineto
          -30 -206 rlineto
          -15 -36 -43 -10 -45 hhcurveto
          -101 -63 93 141 138 69 214 174 31 80 -12 -18 callgsubr
          22 -48 -58 14 -56 hhcurveto
          -225 -108 -224 -213 -171 87 -108 153 hvcurveto
          endchar
        </CharString>
        <CharString name="H">
          104 21 -21 331 65 304 -20 hstem
          491 hmoveto
          7 callgsubr
          -68 hlineto
          -42 -304 rlineto
          -298 hlineto
          42 304 rlineto
          -68 -68 callgsubr
          68 hlineto
          46 331 rlineto
          298 hlineto
          -46 -331 rlineto
          endchar
        </CharString>
        <CharString name="I">
          -263 -61 callsubr
          124 -66 callgsubr
          endchar
        </CharString>
        <CharString name="Iacute">
          -265 -16 callgsubr
          99 -66 callgsubr
          hintmask 00110000
          83 753 -86 callgsubr
        </CharString>
        <CharString name="Icircumflex">
          -213 -73 callsubr
          95 -30 callsubr
          151 -66 callgsubr
          110 883 -96 callsubr
        </CharString>
        <CharString name="Idieresis">
          -291 -73 callsubr
          75 106 hstemhm
          hintmask 11000000
          109 -66 callgsubr
          hintmask 00100000
          -1 755 -104 callsubr
        </CharString>
        <CharString name="Igrave">
          -266 -16 callgsubr
          143 -66 callgsubr
          hintmask 00110000
          138 753 -81 callsubr
        </CharString>
        <CharString name="Itilde">
          -263 -113 75 73 196 endchar
        </CharString>
        <CharString name="J">
          -186 -7 65 583 59 hstem
          -77 callsubr
          endchar
        </CharString>
        <CharString name="Jcircumflex">
          -185 -7 65 583 59 72 -30 callsubr
          -77 callsubr
          -96 180 -96 callsubr
        </CharString>
        <CharString name="K">
          22 -61 callsubr
          475 hmoveto
          -162 434 254 266 rlineto
          -82 hlineto
          -307 -316 44 316 -57 callgsubr
          68 hlineto
          40 288 95 95 130 -383 rlineto
          endchar
        </CharString>
        <CharString name="L">
          -68 0 65 635 -20 hstem
          394 hmoveto
          -75 callsubr
          -270 hlineto
          89 635 -57 callgsubr
          endchar
        </CharString>
        <CharString name="Lslash">
          -111 0 66 634 -20 hstem
          118 345 rmoveto
          -48 -345 rlineto
          261 hlineto
          9 66 rlineto
          -193 hlineto
          44 312 2 callsubr
          35 252 -31 callgsubr
          -40 -284 -81 -49 -10 -72 rlineto
          endchar
        </CharString>
        <CharString name="M">
          169 -61 callsubr
          588 hmoveto
          7 callgsubr
          -68 hlineto
          -267 -385 -152 385 rlineto
          -76 -68 callgsubr
          67 hlineto
          80 573 148 -388 24 -1 257 390 -81 -574 rlineto
          endchar
        </CharString>
        <CharString name="N">
          0 callgsubr
          hstemhm
          hintmask 10100000
          504 -1 -88 callsubr
          endchar
        </CharString>
        <CharString name="Nacute">
          0 callgsubr
          93 -21 124 4 callsubr
          504 -1 -88 callsubr
          hintmask 00011000
          -93 753 -86 callgsubr
        </CharString>
        <CharString name="Ntilde">
          0 callgsubr
          77 58 -3 58 hstemhm
          hintmask 00010000
          501 -72 callsubr
          hintmask 10100000
          -54 -828 -88 callsubr
          endchar
        </CharString>
        <CharString name="O">
          90 -5 66 584 65 hstem
          -28 callsubr
          vstem
          -85 callgsubr
          endchar
        </CharString>
        <CharString name="OE">
          292 -59 callsubr
          hstem
          59 74 vstem
          693 hmoveto
          -75 callsubr
          -271 -35 callsubr
          249 -32 callgsubr
          -249 -42 callgsubr
          271 -69 callgsubr
          -428 hlineto
          -212 -92 -221 -217 -151 61 -111 145 hvcurveto
          105 64 rmoveto
          -95 hlineto
          -99 -43 92 119 156 67 204 156 hvcurveto
          94 hlineto
          endchar
        </CharString>
        <CharString name="Oacute">
          -92 callgsubr
          -58 108 -86 callgsubr
        </CharString>
        <CharString name="Ocircumflex">
          -33 callsubr
          65 -72 callgsubr
          -28 callsubr
          hintmask 11001100
          -85 callgsubr
          -18 238 -96 callsubr
        </CharString>
        <CharString name="Odieresis">
          -33 callsubr
          44 106 hstemhm
          -28 callsubr
          hintmask 11011000
          -100 callsubr
          hintmask 00100000
          -128 109 -104 callsubr
        </CharString>
        <CharString name="Ograve">
          -92 callgsubr
          -5 108 -81 callsubr
        </CharString>
        <CharString name="Omega">
          170 21 -21 645 65 hstem
          92 75 365 74 vstem
          44 65 rmoveto
          -64 callsubr
          0 238 -45 callgsubr
          -75 callsubr
          -86 14 -29 98 102 vvcurveto
          154 70 212 153 109 33 -101 -116 -142 -39 -166 -148 -55 vhcurveto
          -64 callsubr
          0 238 -45 callgsubr
          0 9 65 0 vhcurveto
          0 -115 -45 callgsubr
          91 79 47 167 136 vvcurveto
          153 -64 110 -144 -211 -95 -230 -216 -81 20 -69 44 -49 vhcurveto
          endchar
        </CharString>
        <CharString name="Oslash">
          90 -88 -21 104 66 584 65 90 -20 hstem
          -28 callsubr
          vstem
          -36 callgsubr
          97 -25 80 -56 46 hvcurveto
          60 132 rlineto
          -62 hlineto
          -47 -103 rlineto
          8 -22 -26 5 -29 hhcurveto
          -220 -86 -249 -200 -99 26 -83 57 -46 hvcurveto
          -64 -142 rlineto
          61 hlineto
          52 115 rlineto
          -7 22 24 -4 27 hhcurveto
          -23 callgsubr
          21 19 -5 -8 16 hvcurveto
          -237 -524 rlineto
          -30 38 -13 60 68 vvcurveto
          137 57 234 167 vhcurveto
          142 -217 8 callsubr
          -61 -233 -164 -20 -18 3 7 -15 vhcurveto
          236 521 rlineto
          28 -40 14 -60 -64 vvcurveto
          endchar
        </CharString>
        <CharString name="Otilde">
          -33 callsubr
          44 58 -3 58 hstemhm
          4 74 366 73 hintmask 00100000
          478 824 -36 callsubr
          -31 -38 -26 vhcurveto
          hintmask 00010000
          -27 -65 -32 callsubr
          -55 -70 0 hvcurveto
          25 -26 -61 callgsubr
          hintmask 00100000
          26 66 -55 36 hhcurveto
          36 55 70 0 hvcurveto
          hintmask 11001100
          -269 -829 -105 callsubr
          endchar
        </CharString>
        <CharString name="P">
          -7 21 -21 294 64 278 64 hstem
          433 69 vstem
          257 294 rmoveto
          155 90 100 160 97 -69 49 -128 hvcurveto
          -150 -68 callgsubr
          67 hlineto
          41 294 rlineto
          130 342 rmoveto
          96 42 -33 -72 -124 -73 -49 -1 callgsubr
          117 hlineto
          endchar
        </CharString>
        <CharString name="Q">
          92 -33 -21 47 66 587 64 hstem
          60 75 366 74 vstem
          470 96 rmoveto
          75 106 30 117 127 vvcurveto
          153 -64 111 -144 -225 -82 -265 -182 -153 61 -117 145 60 52 20 34 43 vhcurveto
          72 -101 51 49 rlineto
          -175 243 rmoveto
          -52 -49 66 -92 rlineto
          -24 -30 -35 -14 -42 hhcurveto
          -99 -42 95 120 140 59 232 164 100 43 -102 -116 -97 -22 -105 -49 -77 hvcurveto
          endchar
        </CharString>
        <CharString name="R">
          49 21 -29 callsubr
          hstem
          423 76 vstem
          226 328 -94 callsubr
          -76 callgsubr
          endchar
        </CharString>
        <CharString name="Racute">
          49 21 -29 callsubr
          73 -47 callgsubr
          423 76 hintmask 11100100
          170 328 rmoveto
          -46 -328 rlineto
          0 -67 -45 callgsubr
          7 callgsubr
          182 hlineto
          110 52 -52 -89 -91 -62 -102 -88 -13 hvcurveto
          51 -15 12 -14 21 -90 56 -234 rcurveline
          -71 hlineto
          -56 224 rlineto
          86 -22 -28 18 -86 hhcurveto
          -13 308 rmoveto
          -34 -244 rlineto
          102 hlineto
          87 55 72 80 61 -37 31 -62 hvcurveto
          hintmask 00011000
          -44 116 -86 callgsubr
        </CharString>
        <CharString name="Rcaron">
          48 20 -29 callsubr
          95 -72 callgsubr
          365 76 hintmask 00011000
          328 -38 callgsubr
          -117 -446 -94 callsubr
          hintmask 11100100
          -76 callgsubr
          endchar
        </CharString>
        <CharString name="Rcommaaccent">
          49 -196 -21 177 -20 81 -29 callsubr
          hstemhm
          423 76 hintmask 00111100
          226 328 -94 callsubr
          -76 callgsubr
          hintmask 11000000
          37 -676 rmoveto
          -33 callgsubr
        </CharString>
        <CharString name="S">
          2 -6 70 576 70 hstem
          111 73 192 74 vstem
          469 675 -87 callsubr
        </CharString>
        <CharString name="Scaron">
          2 -6 70 576 70 84 -72 callgsubr
          53 73 192 74 hintmask 00110000
          313 -38 callgsubr
          hintmask 11001100
          141 -98 -87 callsubr
        </CharString>
        <CharString name="T">
          -40 21 -21 633 67 hstem
          170 hmoveto
          66 hlineto
          89 633 rlineto
          175 -32 callgsubr
          -418 hlineto
          -9 -67 rlineto
          177 hlineto
          endchar
        </CharString>
        <CharString name="Thorn">
          -3 21 -21 184 64 278 64 -64 174 hstemhm
          411 74 hintmask 11011000
          220 700 rmoveto
          -67 -68 callgsubr
          67 hlineto
          26 184 rlineto
          92 hlineto
          158 87 92 166 87 -62 61 -115 hvcurveto
          -103 hlineto
          73 -64 rmoveto
          hintmask 11101000
          102 31 -33 -72 -127 -68 -46 -1 callgsubr
          endchar
        </CharString>
        <CharString name="U">
          -19 callgsubr
          hstem
          88 68 vstem
          -85 callsubr
          endchar
        </CharString>
        <CharString name="Uacute">
          -19 callgsubr
          94 -89 callsubr
          46 759 -86 callgsubr
        </CharString>
        <CharString name="Ucircumflex">
          -19 callgsubr
          95 -72 callgsubr
          88 68 hintmask 11001000
          -85 callsubr
          75 889 -96 callsubr
        </CharString>
        <CharString name="Udieresis">
          104 82 45 85 200 endchar
        </CharString>
        <CharString name="Ugrave">
          -19 callgsubr
          95 -89 callsubr
          108 760 -81 callsubr
        </CharString>
        <CharString name="V">
          -2 -61 callsubr
          553 -15 callsubr
          -74 hlineto
          -251 -615 -67 615 -31 callsubr
          81 -63 callgsubr
          95 hlineto
          endchar
        </CharString>
        <CharString name="W">
          181 21 -21 510 -20 209 -20 hstem
          108 65 vstem
          737 699 rmoveto
          -71 hlineto
          -200 -614 -50 425 rlineto
          -51 hlineto
          -180 -425 -23 614 rlineto
          -78 hlineto
          49 -699 rlineto
          74 hlineto
          169 406 35 -406 rlineto
          78 hlineto
          endchar
        </CharString>
        <CharString name="X">
          32 -61 callsubr
          483 hmoveto
          -151 368 239 332 rlineto
          -81 hlineto
          -189 -276 -105 276 rlineto
          -86 hlineto
          144 -332 -260 -368 rlineto
          81 hlineto
          209 315 116 -315 rlineto
          endchar
        </CharString>
        <CharString name="Y">
          2 -61 callsubr
          558 -83 callgsubr
          endchar
        </CharString>
        <CharString name="Yacute">
          2 -73 callsubr
          196 -20 hstem
          552 -83 callgsubr
          -12 437 -86 callgsubr
        </CharString>
        <CharString name="Ydieresis">
          3 -73 callsubr
          136 106 hstemhm
          hintmask 11000000
          558 -83 callgsubr
          hintmask 00100000
          -101 501 -104 callsubr
        </CharString>
        <CharString name="Z">
          -37 0 66 569 65 hstem
          406 hmoveto
          -56 callsubr
        </CharString>
        <CharString name="Zcaron">
          -37 0 66 569 65 94 -72 callgsubr
          hintmask 00110000
          319 773 rmoveto
          139 100 -13 29 -139 -75 -116 75 -21 5 callsubr
          hintmask 11000000
          129 -773 rmoveto
          -56 callsubr
        </CharString>
        <CharString name="_0000">
          -494 endchar
        </CharString>
        <CharString name="_0001">
          -494 endchar
        </CharString>
        <CharString name="_0158">
          63 endchar
        </CharString>
        <CharString name="a">
          -10 -41 callgsubr
          hstemhm
          52 70 hintmask 01110000
          392 -103 callsubr
          hintmask 10110000
          -89 callgsubr
          hintmask 01110000
          -82 callsubr
          hintmask 10110000
          -100 callgsubr
          endchar
        </CharString>
        <CharString name="a.salt">
          -79 callgsubr
          -4 callsubr
          hintmask 10111100
          300 299 -96 callgsubr
          hintmask 01111100
          -106 callgsubr
          hintmask 10111100
          -55 callsubr
        </CharString>
        <CharString name="aacute">
          -95 callgsubr
          -49 171 -74 callgsubr
        </CharString>
        <CharString name="aacute.salt">
          21 -40 callsubr
          hintmask 00001100
          330 -26 callsubr
          -51 callsubr
          hintmask 10110011
          20 -293 -106 callsubr
          endchar
        </CharString>
        <CharString name="acircumflex">
          -41 callgsubr
          94 -72 callgsubr
          24 70 -107 callgsubr
          -79 312 -92 callsubr
        </CharString>
        <CharString name="acircumflex.salt">
          -13 -79 callgsubr
          94 -21 129 -20 -4 callsubr
          hintmask 00001100
          280 712 -102 callsubr
          -108 100 rlineto
          hintmask 10110011
          -23 -413 -106 callsubr
          endchar
        </CharString>
        <CharString name="acute">
          -130 -13 callsubr
          178 -26 callsubr
          -54 callgsubr
        </CharString>
        <CharString name="acuteMAY">
          -100 722 -41 callsubr
          hstem
          209 701 -86 callgsubr
        </CharString>
        <CharString name="adieresis">
          -41 callgsubr
          84 106 hstemhm
          24 70 hintmask 01101000
          364 -103 callsubr
          hintmask 10101000
          -89 callgsubr
          hintmask 01101000
          -82 callsubr
          hintmask 10101000
          -100 callgsubr
          hintmask 00010000
          -187 194 -104 callsubr
        </CharString>
        <CharString name="adieresis.salt">
          -79 callgsubr
          84 106 -4 callsubr
          hintmask 00001000
          172 594 -105 callgsubr
          hintmask 10110110
          -48 -401 -96 callgsubr
          hintmask 01110110
          -106 callgsubr
          hintmask 10110110
          -55 callsubr
        </CharString>
        <CharString name="ae">
          217 -6 64 -44 -21 238 57 157 65 -10 -20 hstemhm
          25 70 532 65 hintmask 10110110
          339 85 rmoveto
          -64 27 57 -27 71 -11 callgsubr
          -2 58 rlineto
          -98 callgsubr
          -47 -39 -15 -25 -31 hvcurveto
          hintmask 10101110
          4 30 rlineto
          -40 hlineto
          -14 -34 rlineto
          hintmask 01110110
          29 -30 -44 15 -80 callsubr
          -51 callgsubr
          61 67 30 76 56 hvcurveto
          13 321 rmoveto
          -30 -215 rlineto
          hintmask 10110110
          -97 callgsubr
          35 -11 -14 25 hvcurveto
          50 -129 -44 callgsubr
        </CharString>
        <CharString name="ae.salt">
          216 -58 callgsubr
          hstem
          45 69 514 65 vstem
          277 510 rmoveto
          -50 -51 -7 -21 -59 hvcurveto
          -99 callsubr
          -37 hlineto
          -134 -121 -44 -141 -72 38 -48 76 73 57 34 54 52 hvcurveto
          -61 28 55 -27 71 -11 callgsubr
          -93 callgsubr
          285 hlineto
          -90 callsubr
          -62 -48 -29 -43 -36 vhcurveto
          48 -18 -41 24 -68 hhcurveto
          52 -274 rmoveto
          -15 -105 rlineto
          -94 callgsubr
          119 55 -90 callgsubr
          endchar
        </CharString>
        <CharString name="agrave">
          -95 callgsubr
          hintmask 00011000
          -36 192 -82 callgsubr
        </CharString>
        <CharString name="agrave.salt">
          -40 callsubr
          hintmask 10110011
          300 299 -106 callsubr
          hintmask 00001100
          55 356 -82 callgsubr
        </CharString>
        <CharString name="ampersand">
          186 -7 65 587 65 hstem
          47 72 12 75 205 70 vstem
          500 361 rmoveto
          -9 -58 -19 -61 -24 -41 -129 164 rcurveline
          108 61 54 56 95 vvcurveto
          79 -53 54 -94 -114 -89 -69 -118 -48 33 -44 53 -57 vhcurveto
          -108 -48 -62 -58 -112 vvcurveto
          -98 64 -65 127 79 85 44 53 46 vhcurveto
          62 -89 rlineto
          90 hlineto
          -109 146 26 46 22 38 26 130 rlinecurve
          -152 -223 rmoveto
          -38 -30 -70 -42 -66 hhcurveto
          -81 -47 43 65 79 60 52 78 37 hvcurveto
          64 311 rmoveto
          48 42 -23 -52 -80 -74 -51 -56 -30 hvcurveto
          -38 48 -37 37 46 vvcurveto
          66 58 39 57 vhcurveto
          endchar
        </CharString>
        <CharString name="approxequal">
          19 131 65 -6 66 80 65 -6 66 hstemhm
          hintmask 10100000
          465 447 -12 callgsubr
          hintmask 10010000
          -67 -16 -24 callsubr
          16 -21 callsubr
          hintmask 10100000
          -25 callgsubr
          29 hvcurveto
          -46 -176 -12 callgsubr
          hintmask 01100000
          -38 callsubr
          hintmask 10100000
          -25 callgsubr
          30 hvcurveto
          endchar
        </CharString>
        <CharString name="aring">
          -41 callgsubr
          42 6 callsubr
          24 70 77 51 103 51 -107 callgsubr
          hintmask 00011011
          -63 372 -97 callsubr
          endchar
        </CharString>
        <CharString name="aring.salt">
          -79 callgsubr
          42 6 callsubr
          45 69 85 51 93 71 -61 51 hintmask 0000110101000000
          316 772 -97 callsubr
          hintmask 1011001010000000
          8 -297 -96 callgsubr
          hintmask 0111001010000000
          -106 callgsubr
          hintmask 1011001010000000
          -55 callsubr
        </CharString>
        <CharString name="arrowdown">
          141 -32 -21 651 -20 hstem
          538 195 rmoveto
          -40 54 -157 -156 71 505 -31 callgsubr
          -71 -505 -107 152 -55 -53 172 -245 rlineto
          endchar
        </CharString>
        <CharString name="arrowleft">
          177 95 -21 203 75 196 -20 hstem
          253 74 rmoveto
          55 52 -118 151 rlineto
          454 hlineto
          10 75 rlineto
          -454 hlineto
          157 143 -40 53 -253 -229 rlineto
          endchar
        </CharString>
        <CharString name="arrowright">
          177 102 -21 196 75 203 -20 hstem
          461 555 rmoveto
          -55 -52 119 -151 rlineto
          -454 hlineto
          -11 -75 rlineto
          454 hlineto
          -157 -143 41 -53 252 229 rlineto
          endchar
        </CharString>
        <CharString name="arrowup">
          141 -7 -21 651 -20 hstem
          135 375 rmoveto
          39 -54 158 156 -71 -505 -27 callgsubr
          71 505 107 -152 55 53 -172 245 rlineto
          endchar
        </CharString>
        <CharString name="asciicircum">
          81 296 -21 392 -20 hstem
          372 667 rmoveto
          -50 hlineto
          -258 -392 rlineto
          72 hlineto
          201 319 112 -319 rlineto
          70 hlineto
          endchar
        </CharString>
        <CharString name="asciitilde">
          -19 226 65 -6 66 hstemhm
          hintmask 10000000
          431 337 -12 callgsubr
          hintmask 01000000
          -38 callsubr
          hintmask 10000000
          -25 callgsubr
          30 hvcurveto
          endchar
        </CharString>
        <CharString name="asterisk">
          -107 391 -21 357 -20 hstem
          375 490 rmoveto
          -109 60 125 58 -20 57 -118 -81 32 143 rlineto
          -59 hlineto
          -11 -143 -91 82 -39 -55 107 -63 -126 -63 21 -53 118 81 -29 -143 rlineto
          59 hlineto
          8 143 96 -81 rlineto
          endchar
        </CharString>
        <CharString name="at">
          323 -119 62 136 56 316 64 129 65 hstem
          71 70 109 57 416 64 vstem
          486 216 rmoveto
          -55 -55 -28 -26 -45 hhcurveto
          -25 -26 9 53 89 64 165 103 49 15 -31 -11 9 hvcurveto
          -75 -328 rmoveto
          -2 12 12 0 12 hhcurveto
          171 108 151 217 141 -62 121 -217 -314 -123 -285 -279 -179 85 -85 164 45 69 3 5 49 hvcurveto
          6 54 rlineto
          -156 hlineto
          -133 -59 68 151 279 131 203 226 160 65 -82 -130 -127 -57 -168 -149 -2 hvcurveto
          117 369 rlineto
          0 -41 -45 callgsubr
          -20 -40 rlineto
          15 -15 -20 36 -60 hhcurveto
          -150 -78 -203 -129 -62 27 -45 61 55 47 37 34 34 hvcurveto
          endchar
        </CharString>
        <CharString name="atilde">
          -41 callgsubr
          70 8 callgsubr
          24 70 -107 callgsubr
          hintmask 00010000
          82 257 -71 callgsubr
        </CharString>
        <CharString name="atilde.salt">
          0 -79 callgsubr
          70 65 -10 65 -4 callsubr
          hintmask 00001000
          444 657 -43 callgsubr
          hintmask 00000100
          -91 callgsubr
          hintmask 00001000
          -70 callsubr
          hintmask 10110011
          -143 -351 -106 callsubr
          endchar
        </CharString>
        <CharString name="b">
          -3 -6 64 -37 -21 446 65 189 -20 hstemhm
          395 72 hintmask 01111000
          154 -15 callsubr
          -80 callgsubr
          40 hlineto
          27 49 rlineto
          hintmask 10111000
          -22 22 49 -33 51 hhcurveto
          173 49 201 142 108 -38 66 -94 -52 -45 -25 -36 -51 hvcurveto
          35 250 rlineto
          -45 -2 callsubr
          44 30 -42 -87 -100 -29 -159 -127 4 callgsubr
        </CharString>
        <CharString name="backslash">
          -58 -124 -21 945 -20 hstem
          283 -145 rmoveto
          72 hlineto
          -160 945 rlineto
          -71 hlineto
          endchar
        </CharString>
        <CharString name="bar">
          -233 -182 -21 1003 -20 hstem
          114 -203 rmoveto
          141 1003 -68 callsubr
          -141 -1003 rlineto
          endchar
        </CharString>
        <CharString name="braceleft">
          -14 callsubr
          85 69 -41 73 hintmask 11101000
          44 278 rmoveto
          48 21 -32 -57 -13 -1 -16 -2 -15 hvcurveto
          -21 -150 rlineto
          hintmask 11110000
          -3 -21 -1 -18 -17 vvcurveto
          -104 54 -36 83 vhcurveto
          21 hlineto
          9 64 rlineto
          -15 hlineto
          -57 -26 18 70 19 2 23 4 28 hvcurveto
          22 151 rlineto
          hintmask 11101000
          3 19 1 17 15 vvcurveto
          46 -15 25 -40 10 vhcurveto
          62 18 13 26 13 90 21 153 rcurveline
          106 15 26 40 76 hhcurveto
          18 hlineto
          9 64 rlineto
          -19 hlineto
          -100 -71 -54 -146 -20 hvcurveto
          -21 -150 rlineto
          -82 -12 -22 -45 -68 hhcurveto
          endchar
        </CharString>
        <CharString name="braceright">
          -14 callsubr
          175 72 -40 70 hintmask 11101000
          118 801 rmoveto
          -9 -64 rlineto
          18 hlineto
          59 21 -23 -60 -18 -2 -21 -3 -24 hvcurveto
          -21 -153 rlineto
          hintmask 11110000
          -4 -25 -2 -20 -16 vvcurveto
          -43 15 -17 40 -13 vhcurveto
          -56 -13 -19 -39 -11 -80 -22 -151 rcurveline
          -128 -18 -31 -30 -72 hhcurveto
          -14 hlineto
          -9 -64 rlineto
          20 hlineto
          97 71 48 148 21 hvcurveto
          21 150 rlineto
          85 12 31 48 59 hhcurveto
          7 46 rlineto
          -52 -18 26 50 15 1 17 3 19 hvcurveto
          21 150 rlineto
          hintmask 11101000
          3 20 2 18 17 vvcurveto
          105 -54 40 -86 vhcurveto
          endchar
        </CharString>
        <CharString name="bracketleft">
          -1 callsubr
          220 -200 rmoveto
          9 64 rlineto
          -121 hlineto
          123 871 rlineto
          119 -69 callgsubr
          -187 hlineto
          -141 -1000 rlineto
          endchar
        </CharString>
        <CharString name="bracketright">
          -1 callsubr
          174 -200 rmoveto
          141 1000 rlineto
          -186 -81 callgsubr
          119 hlineto
          -123 -871 rlineto
          -121 hlineto
          -9 -64 rlineto
          endchar
        </CharString>
        <CharString name="breve">
          -134 -5 48 -48 120 hstemhm
          85 42 hintmask 10100000
          182 43 rmoveto
          -35 -20 12 38 hvcurveto
          hintmask 01100000
          6 1 8 1 8 vhcurveto
          -40 hlineto
          -3 -21 -1 -8 -7 vvcurveto
          -53 30 -31 60 67 42 40 67 9 vhcurveto
          2 13 rlineto
          -40 hlineto
          hintmask 10100000
          -55 -8 -24 -17 -41 hhcurveto
          endchar
        </CharString>
        <CharString name="brokenbar">
          -211 -173 -21 1000 -20 hstem
          203 413 rmoveto
          55 393 rlineto
          -59 hlineto
          -55 -393 rlineto
          -26 -607 rmoveto
          55 395 rlineto
          -59 hlineto
          -55 -395 rlineto
          endchar
        </CharString>
        <CharString name="bullet">
          -71 157 -21 258 -20 hstem
          106 234 vstem
          106 245 rmoveto
          -62 41 -47 58 80 55 80 69 62 -41 47 -58 -79 -56 -80 -69 vhcurveto
          endchar
        </CharString>
        <CharString name="c">
          -104 -5 65 384 -78 callgsubr
          -119 50 -73 111 43 40 9 15 47 hvcurveto
          endchar
        </CharString>
        <CharString name="caron">
          -97 564 -21 188 -20 hstem
          366 690 rmoveto
          -28 41 -102 -94 -77 94 -38 -41 99 -147 rlineto
          endchar
        </CharString>
        <CharString name="ccedilla">
          -104 -161 -21 626 -78 callgsubr
          -107 40 -69 88 -13 hvcurveto
          -9 -64 -13 -21 -39 -64 40 -31 rcurveline
          57 84 15 30 9 64 33 3 33 8 37 12 rrcurveto
          endchar
        </CharString>
        <CharString name="cedilla">
          -155 -156 -21 177 -20 hstem
          186 hmoveto
          -33 callgsubr
        </CharString>
        <CharString name="cent">
          -151 21 -21 510 -20 116 -20 hstem
          56 68 -68 241 vstem
          296 173 rmoveto
          -10 -33 -26 -5 -33 hhcurveto
          -57 -23 28 64 123 34 71 95 24 25 -5 -8 23 hvcurveto
          27 60 rlineto
          8 -23 -36 11 -42 hhcurveto
          13 96 rlineto
          -59 hlineto
          -13 -97 rlineto
          -107 -30 -29 -124 -112 vvcurveto
          -75 24 -54 53 -20 vhcurveto
          -13 -94 rlineto
          59 hlineto
          13 92 rlineto
          39 28 6 12 39 hvcurveto
          endchar
        </CharString>
        <CharString name="circumflex">
          -53 712 -56 callgsubr
          hstem
          262 820 -102 callsubr
          -64 callgsubr
        </CharString>
        <CharString name="colon">
          -299 0 106 288 106 hstem
          113 hmoveto
          -58 callsubr
          122 394 rmoveto
          -58 callsubr
          endchar
        </CharString>
        <CharString name="comma">
          -275 -151 -21 283 -20 hstem
          182 87 rmoveto
          -65 24 -115 -267 41 -16 rlineto
          endchar
        </CharString>
        <CharString name="copyright">
          4 -19 50 -50 128 43 200 44 133 -50 50 hstemhm
          71 54 -54 88 248 54 hintmask 10101101
          320 162 rmoveto
          -8 -21 -12 -2 -23 hhcurveto
          -39 -19 25 47 77 24 51 63 16 11 -4 -4 15 hvcurveto
          1 2 -1 1 hhcurveto
          20 40 rlineto
          4 -16 -19 9 -31 hhcurveto
          -86 -48 -69 -109 -67 29 -42 62 26 20 4 8 27 hvcurveto
          -94 -140 -39 callsubr
          hvcurveto
          hintmask 01110011
          -123 53 -75 105 vhcurveto
          -50 callgsubr
        </CharString>
        <CharString name="currency">
          54 61 65 -63 -21 422 65 15 -20 hstemhm
          95 66 268 67 hintmask 10101100
          153 542 rmoveto
          -55 -53 44 -60 rlineto
          -30 -48 -17 -79 -64 vvcurveto
          -32 4 -28 10 -24 vhcurveto
          -62 -58 35 -46 57 55 rlineto
          -29 28 39 -15 53 hhcurveto
          51 44 14 26 35 hvcurveto
          hintmask 01011100
          46 -59 55 53 -47 62 rlineto
          33 47 20 75 65 vvcurveto
          33 -6 30 -9 25 vhcurveto
          68 66 -35 46 -65 -63 rlineto
          hintmask 10101100
          31 -29 -43 17 -55 hhcurveto
          -52 -42 -15 -26 -35 hvcurveto
          121 -24 rmoveto
          75 40 -55 -80 -113 -61 -90 -100 -66 -41 53 77 105 55 103 98 hvcurveto
          endchar
        </CharString>
        <CharString name="d">
          -7 -8 65 -36 -21 445 64 191 -20 hstemhm
          41 72 hintmask 10111000
          412 -15 callsubr
          -34 -240 rlineto
          20 -22 -42 29 -51 hhcurveto
          -136 -86 -125 -218 -51 callgsubr
          54 46 27 38 53 hvcurveto
          hintmask 01111000
          15 -57 rlineto
          40 hlineto
          99 -10 callsubr
          -149 -576 rmoveto
          hintmask 10111000
          -28 -33 -48 -39 -63 hhcurveto
          -44 -30 42 87 136 42 123 114 36 42 -28 -33 20 hvcurveto
          endchar
        </CharString>
        <CharString name="dagger">
          -42 21 -21 499 65 186 -20 hstem
          230 hmoveto
          70 499 rlineto
          156 -69 callgsubr
          -156 hlineto
          27 186 -31 callgsubr
          -27 -186 rlineto
          -150 -81 callgsubr
          150 hlineto
          -70 -499 rlineto
          endchar
        </CharString>
        <CharString name="daggerdbl">
          -26 21 -21 183 65 262 65 175 -20 hstem
          257 183 rmoveto
          169 -69 callgsubr
          -169 hlineto
          37 262 rlineto
          169 -69 callgsubr
          -169 hlineto
          25 175 rlineto
          -58 hlineto
          -25 -175 -6 callgsubr
          -37 -262 -6 callgsubr
          -26 -183 rlineto
          58 hlineto
          endchar
        </CharString>
        <CharString name="degree">
          -87 444 54 224 54 hstem
          93 55 195 55 vstem
          222 444 rmoveto
          99 77 82 111 80 -52 59 -77 -99 -77 -82 -111 -80 52 -59 77 hvcurveto
          38 278 rmoveto
          53 30 -37 -58 -64 -46 -65 -66 -53 -30 37 58 64 46 65 66 hvcurveto
          endchar
        </CharString>
        <CharString name="dieresis">
          -33 709 106 hstem
          156 709 -104 callsubr
        </CharString>
        <CharString name="divide">
          -22 0 106 122 65 101 106 hstem
          257 hmoveto
          -20 callgsubr
          123 394 rmoveto
          -20 callgsubr
          200 -166 -47 callsubr
          -388 -53 callsubr
        </CharString>
        <CharString name="dollar">
          -37 -39 -21 90 62 510 58 87 -20 hstem
          106 71 168 68 vstem
          319 660 rmoveto
          0 12 87 0 vhcurveto
          0 -59 -45 callgsubr
          -12 -87 rlineto
          -86 -4 -68 -79 -100 -163 239 35 -128 vvcurveto
          -84 -70 -45 -69 -71 -66 37 0 vhcurveto
          -28 -50 29 -21 44 -24 58 -4 rlinecurve
          -1 -1 -12 -89 0 vvcurveto
          0 59 -45 callgsubr
          13 92 rlineto
          113 12 69 94 106 158 -236 -32 123 vvcurveto
          68 42 41 60 vhcurveto
          60 71 -29 -3 hhcurveto
          21 60 rlineto
          0 -56 21 -53 6 vhcurveto
          endchar
        </CharString>
        <CharString name="dotaccent">
          -273 726 -21 96 -20 hstem
          186 705 rmoveto
          13 96 rlineto
          -59 hlineto
          -13 -96 rlineto
          endchar
        </CharString>
        <CharString name="dotlessi">
          -13 callgsubr
          hstem
          52 -65 callsubr
          endchar
        </CharString>
        <CharString name="e">
          -25 callsubr
          hstem
          -43 callsubr
          vstem
          -103 callgsubr
          endchar
        </CharString>
        <CharString name="e.salt">
          -24 callgsubr
          hstem
          -43 callsubr
          vstem
          -107 callsubr
          endchar
        </CharString>
        <CharString name="eacute">
          -54 111 0 101 194 endchar
        </CharString>
        <CharString name="eacute.salt">
          -53 -95 callsubr
          -65 280 -74 callgsubr
        </CharString>
        <CharString name="ecircumflex">
          -25 callsubr
          94 -21 129 -44 callsubr
          -103 callgsubr
          145 421 -92 callsubr
        </CharString>
        <CharString name="ecircumflex.salt">
          -24 callgsubr
          94 -21 129 -104 callgsubr
          -74 421 -92 callsubr
        </CharString>
        <CharString name="edieresis">
          -25 callsubr
          85 106 hstemhm
          -43 callsubr
          hintmask 11101100
          -103 callgsubr
          hintmask 00010000
          35 304 -104 callsubr
        </CharString>
        <CharString name="edieresis.salt">
          -24 callgsubr
          85 106 hstemhm
          -43 callsubr
          hintmask 11101100
          -107 callsubr
          hintmask 00010000
          -184 304 -104 callsubr
        </CharString>
        <CharString name="egrave">
          -54 41 0 101 193 endchar
        </CharString>
        <CharString name="egrave.salt">
          -54 -95 callsubr
          hintmask 00011000
          -38 301 -82 callgsubr
        </CharString>
        <CharString name="eight">
          24 -6 63 588 65 hstemhm
          50 72 -4 72 214 74 -41 74 hintmask 11010100
          511 568 rmoveto
          77 -57 65 -108 -135 -93 -92 -128 -61 32 -37 45 -28 vhcurveto
          hintmask 11101000
          -84 -46 -61 -73 -93 vvcurveto
          -85 51 -73 126 144 107 88 135 61 -42 37 -49 29 vhcurveto
          hintmask 11100100
          70 54 54 85 85 vvcurveto
          -266 -511 rmoveto
          -88 -35 48 60 79 67 59 64 29 hvcurveto
          hintmask 11011000
          85 -36 66 -31 -66 vvcurveto
          -87 -84 -55 -75 vhcurveto
          87 317 rmoveto
          -57 19 -85 51 68 vvcurveto
          82 74 51 70 vhcurveto
          hintmask 11100100
          65 38 -41 -56 -73 -54 -64 -51 -37 hvcurveto
          endchar
        </CharString>
        <CharString name="ellipsis">
          171 0 106 hstem
          113 hmoveto
          -58 callsubr
          311 hmoveto
          -58 callsubr
          311 hmoveto
          -58 callsubr
          endchar
        </CharString>
        <CharString name="emdash">
          226 257 65 hstem
          735 257 -47 callsubr
          -720 -53 callsubr
        </CharString>
        <CharString name="endash">
          -44 257 65 hstem
          465 257 -47 callsubr
          -450 -53 callsubr
        </CharString>
        <CharString name="equal">
          28 163 65 133 65 hstem
          484 361 -47 callsubr
          -387 -81 callgsubr
          359 -198 -47 callsubr
          -387 -53 callsubr
        </CharString>
        <CharString name="eth">
          22 -6 65 384 68 247 -20 hstem
          79 70 259 71 vstem
          301 443 rmoveto
          74 33 -42 -85 -140 -53 -117 -107 -69 -30 45 84 132 39 123 113 hvcurveto
          112 258 rmoveto
          -29 38 -109 -58 -71 77 -52 -35 21 -18 28 -31 22 -23 rlinecurve
          -110 -63 29 -40 107 61 73 -98 rlineto
          -195 -1 -48 -155 -169 vvcurveto
          -119 54 -73 107 161 78 159 174 50 -10 41 -20 31 vhcurveto
          -42 66 -104 128 0 vvcurveto
          endchar
        </CharString>
        <CharString name="exclam">
          -254 0 93 608 -20 hstem
          156 190 rmoveto
          71 511 -68 callsubr
          -71 -511 rlineto
          39 -190 rmoveto
          13 93 -68 callsubr
          -13 -93 rlineto
          endchar
        </CharString>
        <CharString name="exclamdown">
          -254 -86 -21 608 93 hstem
          125 404 rmoveto
          -72 -511 -17 callsubr
          72 511 rlineto
          -39 190 rmoveto
          -13 -93 -17 callsubr
          13 93 rlineto
          endchar
        </CharString>
        <CharString name="f">
          -233 -218 -21 679 60 149 61 hstem
          204 440 rmoveto
          92 hlineto
          9 60 rlineto
          -93 -5 callgsubr
          27 -21 callgsubr
          -18 5 -26 hhcurveto
          -55 -66 -27 -97 -14 hvcurveto
          -12 -86 -31 callgsubr
          -9 -60 rlineto
          69 hlineto
          -65 -474 -10 -19 callsubr
          33 -35 52 53 29 59 16 117 rlinecurve
          endchar
        </CharString>
        <CharString name="fi">
          -27 21 -21 439 61 149 61 hstem
          292 hmoveto
          68 -35 callgsubr
          -241 -5 callgsubr
          26 -21 callgsubr
          -49 callsubr
          439 rlineto
          173 hlineto
          105 260 rmoveto
          -68 hlineto
          -13 -89 -27 callgsubr
          endchar
        </CharString>
        <CharString name="five">
          9 -6 66 300 65 210 65 hstem
          389 74 vstem
          221 60 rmoveto
          -78 -76 40 0 hvcurveto
          -28 -53 rlineto
          0 67 -53 100 166 91 127 141 105 -83 58 -129 -28 -28 -1 0 vhcurveto
          39 211 rlineto
          259 hlineto
          13 65 rlineto
          -321 hlineto
          -69 -339 rlineto
          0 62 -1 57 95 59 -35 -79 -103 -69 -83 -99 vhcurveto
          endchar
        </CharString>
        <CharString name="fl">
          -84 21 -21 440 60 149 61 1 -20 hstemhm
          hintmask 11010000
          236 hmoveto
          67 hlineto
          99 711 -68 -11 rlineto
          hintmask 11100000
          5 -24 -49 callsubr
          440 rlineto
          91 hlineto
          9 60 rlineto
          -91 -5 callgsubr
          26 17 39 hhcurveto
          13 24 -5 -4 18 hvcurveto
          endchar
        </CharString>
        <CharString name="flecha0">
          -77 -41 -21 670 -20 hstem
          290 -62 rmoveto
          94 670 -347 -334 rlineto
          endchar
        </CharString>
        <CharString name="flecha01">
          104 0 callsubr
          528 335 -434 335 rlineto
          -7 -527 rmoveto
          55 392 261 -203 rlineto
          endchar
        </CharString>
        <CharString name="flecha02">
          414 0 callsubr
          852 327 -758 343 rlineto
          -14 -565 rmoveto
          64 452 532 -223 rlineto
          endchar
        </CharString>
        <CharString name="florin">
          -215 -132 -21 535 60 209 61 hstem
          -10 382 rmoveto
          68 hlineto
          -135 -535 72 10 131 525 rlineto
          100 hlineto
          15 60 rlineto
          -101 hlineto
          36 142 rlineto
          44 11 40 23 35 hhcurveto
          15 22 -2 -3 17 hvcurveto
          21 54 rlineto
          8 -21 -35 4 -25 hhcurveto
          -55 -65 -26 -88 -23 hvcurveto
          -40 -156 rlineto
          -70 hlineto
          endchar
        </CharString>
        <CharString name="four">
          -8 0 196 -65 65 504 4 callsubr
          273 hmoveto
          65 hlineto
          hintmask 01100000
          18 131 rlineto
          74 -69 callgsubr
          -74 hlineto
          27 186 rlineto
          -65 hlineto
          -27 -186 rlineto
          -206 hlineto
          257 504 rlineto
          -72 hlineto
          -265 -520 -7 -49 rlineto
          284 hlineto
          endchar
        </CharString>
        <CharString name="fraction">
          -128 21 -21 688 -20 hstem
          501 688 rmoveto
          -71 hlineto
          -463 -688 rlineto
          69 hlineto
          endchar
        </CharString>
        <CharString name="g">
          -7 -236 65 164 65 387 65 hstemhm
          56 70 0 246 hintmask 11110000
          334 53 rmoveto
          -11 -83 rlineto
          -103 -14 -64 -38 -53 hhcurveto
          -42 -37 8 19 -50 hvcurveto
          -20 -53 rlineto
          -23 52 36 -16 52 hhcurveto
          104 86 64 151 21 hvcurveto
          72 522 -66 callsubr
          -32 -65 rlineto
          48 -26 -39 26 -51 hhcurveto
          -126 -96 -123 -220 -51 callgsubr
          49 44 21 34 47 hvcurveto
          16 77 rmoveto
          -28 -32 -48 -39 -63 hhcurveto
          -49 -26 39 81 146 39 121 117 hvcurveto
          hintmask 11101000
          38 52 -38 -71 -7 -2 -16 -1 -9 hvcurveto
          endchar
        </CharString>
        <CharString name="germandbls">
          17 -6 58 -31 -21 343 64 238 65 hstemhm
          409 67 -46 46 -46 67 hintmask 01110100
          57 hmoveto
          67 hlineto
          70 498 rlineto
          88 12 20 59 105 hhcurveto
          62 37 -39 -57 -79 -75 -63 -70 hvcurveto
          -25 hlineto
          -9 -64 rlineto
          26 hlineto
          hintmask 10111000
          92 -2 40 -57 -57 vvcurveto
          -114 -78 -61 -131 vhcurveto
          -7 -53 rlineto
          -3 16 18 -2 23 hhcurveto
          111 115 80 158 86 -47 54 -65 10 hvcurveto
          hintmask 01110010
          61 7 72 75 96 vvcurveto
          81 -51 69 -117 -120 -60 -55 -123 -17 vhcurveto
          endchar
        </CharString>
        <CharString name="grave">
          -142 -13 callsubr
          275 592 -82 callgsubr
        </CharString>
        <CharString name="graveMAY">
          -100 722 -41 callsubr
          hstem
          273 701 -81 callsubr
        </CharString>
        <CharString name="greater">
          -19 67 -21 505 -20 hstem
          437 270 rmoveto
          7 56 -320 225 -11 -80 262 -173 -311 -175 -11 -77 rlineto
          endchar
        </CharString>
        <CharString name="greaterequal">
          -53 0 65 562 -20 hstem
          386 346 rmoveto
          8 56 -320 225 -12 -80 263 -173 -312 -175 -10 -77 rlineto
          335 -122 -47 callsubr
          -351 -53 callsubr
        </CharString>
        <CharString name="guillemotleft">
          -34 99 -21 440 -20 hstem
          386 108 rmoveto
          -66 191 119 189 -41 18 -149 -209 89 -208 rlineto
          -122 8 rmoveto
          -69 202 126 200 -42 19 -157 -221 94 -219 rlineto
          endchar
        </CharString>
        <CharString name="guillemotright">
          -34 99 -21 440 -20 hstem
          115 488 rmoveto
          65 -191 -118 -189 41 -18 149 209 -89 208 rlineto
          122 -8 rmoveto
          69 -202 -126 -200 42 -19 157 221 -94 219 rlineto
          endchar
        </CharString>
        <CharString name="guilsinglleft">
          3 callgsubr
          220 105 rmoveto
          -69 193 123 191 -45 23 -156 -216 94 -214 rlineto
          endchar
        </CharString>
        <CharString name="guilsinglright">
          3 callgsubr
          118 489 rmoveto
          70 -193 -124 -191 46 -23 156 216 -94 214 rlineto
          endchar
        </CharString>
        <CharString name="h">
          6 21 -21 447 63 190 -20 hstem
          375 69 vstem
          393 hmoveto
          49 348 rlineto
          -26 callgsubr
          33 240 rlineto
          -66 -68 callgsubr
          67 hlineto
          56 399 rlineto
          -37 callsubr
          endchar
        </CharString>
        <CharString name="hbar">
          6 21 -21 447 63 75 55 -55 115 hstemhm
          375 69 hintmask 11101000
          180 399 rmoveto
          -37 callsubr
          hintmask 11011000
          67 hlineto
          49 348 rlineto
          hintmask 11101000
          -26 callgsubr
          17 125 rlineto
          142 hlineto
          8 55 rlineto
          -142 hlineto
          8 60 -68 callsubr
          -8 -60 -31 callsubr
          -8 -55 rlineto
          76 hlineto
          -82 -585 -27 callgsubr
          endchar
        </CharString>
        <CharString name="hungarumlaut">
          -45 -13 callsubr
          159 -26 callsubr
          -121 -141 rlineto
          198 -21 rmoveto
          135 132 -62 30 -54 callgsubr
        </CharString>
        <CharString name="hyphen">
          -235 254 75 hstem
          230 254 rmoveto
          10 75 rlineto
          -171 hlineto
          -10 -75 rlineto
          endchar
        </CharString>
        <CharString name="i">
          -13 callgsubr
          131 89 hstem
          -40 callgsubr
          endchar
        </CharString>
        <CharString name="iacute">
          -290 -62 callsubr
          112 -30 callgsubr
          21 71 -55 callgsubr
        </CharString>
        <CharString name="icircumflex">
          -13 callgsubr
          124 -21 129 -20 -46 callgsubr
          -9 212 -96 callsubr
        </CharString>
        <CharString name="idieresis">
          -13 callgsubr
          114 106 -46 callgsubr
          hintmask 00100000
          -118 94 -104 callsubr
        </CharString>
        <CharString name="igrave">
          -290 -62 callsubr
          106 -30 callgsubr
          hintmask 00110000
          35 86 -82 callgsubr
        </CharString>
        <CharString name="ij">
          -89 -218 -21 260 -65 callgsubr
          20 112 -1 89 -88 88 hstemhm
          hintmask 01101000
          -40 callgsubr
          hintmask 10000100
          220 89 -45 callsubr
          hintmask 10010000
          -34 callsubr
        </CharString>
        <CharString name="infinity">
          308 133 63 201 60 hstem
          73 65 562 69 vstem
          431 338 rmoveto
          59 -45 -55 60 -72 hhcurveto
          -120 -66 -87 -108 -83 54 -46 81 72 70 57 64 61 hvcurveto
          -64 46 55 -57 71 hhcurveto
          120 66 87 108 82 -54 47 -81 -73 -70 -58 -61 -60 hvcurveto
          -57 -44 rmoveto
          -52 -51 -54 -46 -49 hhcurveto
          -53 -29 29 51 65 44 56 63 50 41 -51 -52 38 hvcurveto
          88 hmoveto
          52 52 58 51 49 hhcurveto
          50 29 -33 -49 -71 -44 -48 -67 -50 -40 46 52 -37 hvcurveto
          endchar
        </CharString>
        <CharString name="integral">
          -177 -201 60 885 60 hstem
          86 -73 rmoveto
          -50 -7 -26 -18 -38 hhcurveto
          -43 hlineto
          -13 -49 rlineto
          -8 22 13 -3 24 hhcurveto
          55 67 35 89 13 hvcurveto
          105 753 rlineto
          50 7 27 18 38 hhcurveto
          44 hlineto
          13 49 rlineto
          8 -22 -14 3 -25 hhcurveto
          -55 -66 -35 -89 -12 hvcurveto
          endchar
        </CharString>
        <CharString name="itilde">
          -289 -62 callsubr
          107 65 -10 65 -46 callgsubr
          hintmask 00100000
          171 164 -71 callsubr
        </CharString>
        <CharString name="j">
          -294 -218 -21 739 112 0 88 hstemhm
          hintmask 10100000
          213 700 -45 callsubr
          hintmask 11000000
          -34 callsubr
        </CharString>
        <CharString name="jcircumflex">
          -294 -218 -21 739 -20 124 -30 callsubr
          23 -239 rmoveto
          52 53 29 59 16 117 72 510 rcurveline
          -67 hlineto
          -75 -534 -11 -19 callsubr
          127 916 -96 callsubr
        </CharString>
        <CharString name="k">
          -36 -62 callsubr
          220 -20 hstem
          155 -15 callsubr
          -98 -700 -54 callsubr
          58 412 rlineto
          endchar
        </CharString>
        <CharString name="kcedilla">
          -36 28 -40 107 203 endchar
        </CharString>
        <CharString name="kgreenlandic">
          -36 -62 callsubr
          hstem
          134 500 rmoveto
          -70 -500 -54 callsubr
          30 212 rlineto
          endchar
        </CharString>
        <CharString name="l">
          -263 -61 callsubr
          -7 callgsubr
          endchar
        </CharString>
        <CharString name="ldot">
          -148 21 -21 247 103 350 4 callsubr
          -7 callgsubr
          hintmask 01000000
          159 -453 -9 callsubr
        </CharString>
        <CharString name="less">
          -19 66 -21 506 -20 hstem
          392 45 rmoveto
          11 78 -263 175 312 173 11 80 -384 -225 -8 -57 rlineto
          endchar
        </CharString>
        <CharString name="lessequal">
          -53 0 65 559 -20 hstem
          354 118 rmoveto
          11 78 -262 175 311 173 11 80 -383 -225 -8 -57 rlineto
          304 -342 -47 callsubr
          -351 -53 callsubr
        </CharString>
        <CharString name="logicalnot">
          -28 125 209 -65 65 hstemhm
          hintmask 10000000
          422 125 rmoveto
          29 209 rlineto
          -387 hlineto
          hintmask 01000000
          -64 callsubr
          319 hlineto
          hintmask 10000000
          -20 -144 rlineto
          endchar
        </CharString>
        <CharString name="lozenge">
          -5 20 -21 701 -20 hstem
          477 352 rmoveto
          -131 348 rlineto
          -55 hlineto
          -231 -350 131 -351 rlineto
          55 hlineto
          148 351 rmoveto
          -162 -265 -89 267 163 265 rlineto
          endchar
        </CharString>
        <CharString name="lslash">
          -221 -61 callsubr
          189 415 rmoveto
          2 callsubr
          30 215 rlineto
          -63 hlineto
          -34 -247 -82 -49 -10 -72 82 50 -54 -382 rlineto
          63 hlineto
          endchar
        </CharString>
        <CharString name="m">
          271 21 -11 callsubr
          -10 -20 hstemhm
          647 70 hintmask 11010000
          64 hmoveto
          hintmask 10110000
          68 hlineto
          55 397 rlineto
          24 30 29 24 59 hhcurveto
          45 31 -30 -61 -10 -1 -11 -15 callgsubr
          2 15 0 15 13 vvcurveto
          11 14 56 39 51 hhcurveto
          46 30 -30 -62 -10 0 -10 -15 callgsubr
          1 9 1 13 10 vvcurveto
          86 -55 40 -70 -65 -52 -40 -28 -35 vhcurveto
          46 -20 -43 22 -52 hhcurveto
          -69 -39 -33 -29 -35 hvcurveto
          -4 52 rlineto
          -44 hlineto
          endchar
        </CharString>
        <CharString name="macron">
          -47 614 65 hstem
          119 614 rmoveto
          285 hlineto
          10 65 rlineto
          -285 hlineto
          endchar
        </CharString>
        <CharString name="minus">
          19 275 65 hstem
          468 275 -47 callsubr
          -388 -53 callsubr
        </CharString>
        <CharString name="mu">
          8 -8 callgsubr
          64 -37 -65 callgsubr
          hstemhm
          hintmask 11010000
          143 500 rmoveto
          -103 -736 -17 callsubr
          hintmask 10110000
          35 246 rlineto
          0 31 -16 40 51 44 31 34 47 vhcurveto
          15 -23 callsubr
          hintmask 11010000
          -17 callgsubr
          -68 hlineto
          -52 -373 rlineto
          -48 callsubr
          13 2 14 2 17 hvcurveto
          46 331 rlineto
          endchar
        </CharString>
        <CharString name="multiply">
          54 63 -21 502 -20 hstem
          549 498 rmoveto
          -35 46 -210 -202 -151 200 -55 -53 151 -200 -202 -193 35 -46 201 193 152 -201 55 53 -151 201 rlineto
          endchar
        </CharString>
        <CharString name="n">
          4 -12 callsubr
          hstemhm
          379 70 hintmask 11010000
          -27 callsubr
          hintmask 10110000
          -70 callgsubr
          endchar
        </CharString>
        <CharString name="nacute">
          5 -12 callsubr
          112 -52 callsubr
          379 70 hintmask 11000100
          -27 callsubr
          hintmask 10100100
          -70 callgsubr
          150 571 -74 callgsubr
        </CharString>
        <CharString name="nine">
          7 -6 66 221 65 299 65 hstem
          87 74 261 73 vstem
          258 281 rmoveto
          62 59 25 12 22 hvcurveto
          -144 -28 -55 -114 -114 hhcurveto
          -65 -59 27 0 hvcurveto
          -24 -60 rlineto
          0 52 -33 79 229 79 274 231 123 -50 88 -126 -148 -84 -123 -148 -103 61 -55 110 vhcurveto
          46 364 rmoveto
          84 34 -58 -100 -27 -2 -31 -5 -33 hvcurveto
          -4 vlineto
          -11 -19 -64 -35 -62 hhcurveto
          -68 -41 32 76 97 56 94 87 hvcurveto
          endchar
        </CharString>
        <CharString name="notequal">
          -133 1 242 -66 66 120 65 244 -20 hstemhm
          hintmask 10110000
          407 672 rmoveto
          -62 hlineto
          -110 -244 rlineto
          -192 -81 callgsubr
          172 hlineto
          -54 -120 rlineto
          -135 hlineto
          hintmask 01110000
          -9 -66 rlineto
          115 hlineto
          hintmask 10110000
          -80 -176 rlineto
          63 hlineto
          hintmask 01110000
          79 176 rlineto
          210 hlineto
          9 66 rlineto
          -189 hlineto
          53 120 rlineto
          153 -69 callgsubr
          -133 hlineto
          endchar
        </CharString>
        <CharString name="ntilde">
          5 -12 callsubr
          99 8 callgsubr
          379 70 hintmask 11000100
          131 hmoveto
          -67 -35 callgsubr
          43 hlineto
          4 -49 rlineto
          26 33 41 33 70 hhcurveto
          71 53 -43 -85 -11 -1 -12 -2 -12 hvcurveto
          -48 -347 -68 callsubr
          hintmask 10100100
          45 325 rlineto
          2 12 1 12 10 vvcurveto
          56 -26 31 -51 -47 -43 -25 -24 -26 vhcurveto
          hintmask 00010000
          282 259 -71 callgsubr
        </CharString>
        <CharString name="numbersign">
          63 21 -21 191 65 209 65 -65 235 hstemhm
          hintmask 11100000
          569 465 -47 callsubr
          -86 hlineto
          hintmask 11010000
          38 170 -68 callsubr
          hintmask 11100000
          -41 -170 rlineto
          -143 hlineto
          hintmask 11010000
          40 170 -31 callgsubr
          hintmask 11100000
          -40 -170 rlineto
          -112 -81 callgsubr
          107 hlineto
          -49 -209 rlineto
          -110 -81 callgsubr
          104 hlineto
          -45 -191 rlineto
          69 hlineto
          45 191 rlineto
          143 hlineto
          -45 -191 -27 callgsubr
          44 191 rlineto
          95 -69 callgsubr
          -88 hlineto
          47 209 rlineto
          -66 hmoveto
          -50 -209 rlineto
          -143 hlineto
          50 209 rlineto
          endchar
        </CharString>
        <CharString name="o">
          -28 -6 7 callsubr
          hstem
          -18 callsubr
          vstem
          -84 callsubr
          endchar
        </CharString>
        <CharString name="oacute">
          -28 -6 7 callsubr
          82 -52 callsubr
          -18 callsubr
          hintmask 11001100
          -84 callsubr
          71 577 -55 callgsubr
        </CharString>
        <CharString name="ocircumflex">
          -28 30 -108 111 195 endchar
        </CharString>
        <CharString name="odieresis">
          -28 28 -115 111 200 endchar
        </CharString>
        <CharString name="oe">
          272 -6 65 172 57 157 65 hstem
          52 69 260 65 238 65 vstem
          694 87 rmoveto
          -98 callgsubr
          -79 -56 -43 -60 -37 hvcurveto
          69 -24 -51 34 -74 hhcurveto
          -46 callsubr
          80 60 37 58 40 hvcurveto
          -66 26 58 -29 73 -11 callgsubr
          -420 416 -76 callsubr
          185 -154 -44 callgsubr
        </CharString>
        <CharString name="ogonek">
          -223 -194 53 -53 194 hstemhm
          43 66 hintmask 10100000
          128 hmoveto
          -44 -28 -41 -47 -58 vvcurveto
          -41 26 -20 46 31 41 12 13 24 vhcurveto
          -6 40 rlineto
          -6 -21 -14 -6 -21 hhcurveto
          -30 -10 13 19 hvcurveto
          hintmask 01100000
          43 31 29 63 37 vhcurveto
          endchar
        </CharString>
        <CharString name="ograve">
          -28 -6 7 callsubr
          82 -21 162 -20 -86 callsubr
          hintmask 00110000
          119 598 -82 callgsubr
        </CharString>
        <CharString name="one">
          -27 0 65 635 -20 hstem
          12 hmoveto
          381 -69 callgsubr
          -138 hlineto
          89 635 -68 callsubr
          -206 -129 25 -56 171 111 -79 -561 rlineto
          -176 hlineto
          endchar
        </CharString>
        <CharString name="onehalf">
          240 0 47 249 43 -23 48 324 -20 hstemhm
          617 58 hintmask 10111000
          -14 callgsubr
          65 hlineto
          -96 316 -49 callgsubr
          -101 1 callsubr
          -62 hlineto
          562 -317 -6 callsubr
          hintmask 11011000
          -62 callgsubr
        </CharString>
        <CharString name="onequarter">
          302 0 135 -50 50 181 48 324 -20 hstemhm
          hintmask 10110000
          -14 callgsubr
          66 hlineto
          402 hmoveto
          46 hlineto
          hintmask 01110000
          12 85 rlineto
          61 -8 callsubr
          -46 -22 callgsubr
          -194 -301 -6 -41 rlineto
          183 hlineto
          hintmask 10110000
          -511 231 -49 callgsubr
          -100 1 callsubr
          -63 hlineto
          endchar
        </CharString>
        <CharString name="onesuperior">
          -153 316 48 298 -20 hstem
          88 316 -49 callgsubr
          -102 -63 11 -49 82 50 -33 -236 rlineto
          -63 hlineto
          endchar
        </CharString>
        <CharString name="ordfeminine">
          -167 234 55 69 47 235 45 hstem
          73 46 vstem
          264 234 rmoveto
          8 55 rlineto
          -215 hlineto
          -8 -55 rlineto
          234 424 rmoveto
          12 -12 -30 15 -23 hhcurveto
          -100 -45 -83 -136 -65 28 -43 49 32 22 7 34 41 hvcurveto
          9 -38 rlineto
          25 hlineto
          43 319 rlineto
          -23 hlineto
          -51 -201 rmoveto
          -38 -5 -49 -36 -37 hhcurveto
          -22 -16 28 41 97 23 69 74 18 19 -8 -13 14 hvcurveto
          endchar
        </CharString>
        <CharString name="ordmasculine">
          -161 234 54 70 50 0 242 0 50 hstemhm
          83 57 129 57 hintmask 10101100
          271 234 rmoveto
          7 54 rlineto
          -215 hlineto
          -7 -54 rlineto
          131 174 rmoveto
          -34 -13 31 46 63 27 102 55 34 13 -31 -46 -63 -27 -102 -55 hvcurveto
          41 292 rmoveto
          -105 -40 -116 -106 -72 31 -48 67 105 40 116 106 hvcurveto
          hintmask 11011100
          72 -31 48 -67 vhcurveto
          endchar
        </CharString>
        <CharString name="oslash">
          -28 -22 -21 37 63 390 63 35 -20 hstem
          -18 callsubr
          vstem
          212 -6 -20 callsubr
          39 -4 33 -9 28 hvcurveto
          95 108 -47 38 -78 -88 rlineto
          35 -28 -41 18 -53 hhcurveto
          -150 -83 -139 -172 -48 6 -40 14 -32 hvcurveto
          -69 -78 41 -44 63 71 rlineto
          -23 26 35 -11 46 hhcurveto
          62 453 rmoveto
          40 28 -16 -32 17 hvcurveto
          -235 -263 rlineto
          -3 18 -2 22 25 vvcurveto
          121 41 125 114 vhcurveto
          105 -155 rmoveto
          -123 -46 -112 -115 -31 -23 8 17 -16 vhcurveto
          228 256 rlineto
          2 -14 1 -15 -17 vvcurveto
          endchar
        </CharString>
        <CharString name="otilde">
          -28 -6 7 callsubr
          70 65 -10 65 -86 callsubr
          hintmask 00100000
          241 663 -71 callsubr
        </CharString>
        <CharString name="p">
          -3 -8 callgsubr
          64 387 65 hstem
          410 72 vstem
          106 -236 rmoveto
          39 278 rlineto
          -19 21 35 -29 59 hhcurveto
          150 72 133 210 108 -39 65 -93 -59 -49 -33 -34 -46 hvcurveto
          -15 57 -66 callsubr
          -103 -736 rlineto
          154 612 rmoveto
          28 33 47 41 63 hhcurveto
          44 31 -42 -88 -146 -42 -111 -114 -36 -43 19 33 -21 hvcurveto
          endchar
        </CharString>
        <CharString name="paragraph">
          45 -182 -21 853 60 hstem
          563 710 rmoveto
          -239 hlineto
          -133 -74 -98 -110 -81 48 -63 86 hvcurveto
          -79 -561 rlineto
          58 hlineto
          120 853 rlineto
          82 hlineto
          -120 -853 rlineto
          59 hlineto
          120 853 rlineto
          63 hlineto
          endchar
        </CharString>
        <CharString name="parenleft">
          -240 -109 -21 894 -20 hstem
          81 69 vstem
          266 764 rmoveto
          -118 -178 -67 -205 -206 vvcurveto
          -106 18 -103 37 -96 vhcurveto
          64 12 rlineto
          -32 94 -18 99 104 vvcurveto
          202 66 198 108 172 vhcurveto
          endchar
        </CharString>
        <CharString name="parenright">
          -241 -109 -21 894 -20 hstem
          152 69 vstem
          36 -130 rmoveto
          118 178 67 205 206 vvcurveto
          106 -18 103 -37 96 vhcurveto
          -64 -12 rlineto
          32 -94 18 -99 -104 vvcurveto
          -202 -66 -198 -108 -172 vhcurveto
          endchar
        </CharString>
        <CharString name="partialdiff">
          -36 -6 71 318 65 290 -20 hstem
          9 71 289 72 vstem
          180 670 rmoveto
          121 -33 64 -104 -97 vvcurveto
          7 -38 -39 5 -39 hhcurveto
          -161 -79 -136 -139 -120 67 -59 100 214 51 240 164 176 -105 130 -127 34 hvcurveto
          -23 -673 rmoveto
          -69 -37 50 74 116 74 78 90 45 48 -9 -6 32 hvcurveto
          -113 -3 -44 -190 -136 hhcurveto
          endchar
        </CharString>
        <CharString name="percent">
          169 -6 50 310 50 242 50 hstem
          86 -3 callgsubr
          38 -3 callgsubr
          vstem
          609 688 rmoveto
          -70 hlineto
          -464 -687 rlineto
          70 hlineto
          362 285 -50 callsubr
          107 68 6 -88 callgsubr
          endchar
        </CharString>
        <CharString name="period">
          -329 0 106 hstem
          112 hmoveto
          -58 callsubr
          endchar
        </CharString>
        <CharString name="periodcentered">
          -331 247 103 hstem
          128 247 -9 callsubr
        </CharString>
        <CharString name="perthousand">
          459 -6 50 242 50 18 50 242 50 hstem
          86 -3 callgsubr
          38 -3 callgsubr
          46 -3 callgsubr
          vstem
          609 688 rmoveto
          -70 hlineto
          -464 -687 rlineto
          70 hlineto
          362 285 -50 callsubr
          113 68 -88 callgsubr
          566 -410 -50 callsubr
          113 68 -74 callsubr
          endchar
        </CharString>
        <CharString name="pi">
          31 21 -21 479 65 hstem
          534 544 rmoveto
          -441 -81 callgsubr
          83 hlineto
          -68 -479 -27 callgsubr
          68 479 rlineto
          137 hlineto
          -68 -479 rlineto
          66 hlineto
          68 479 rlineto
          87 hlineto
          endchar
        </CharString>
        <CharString name="plus">
          -72 90 -21 193 65 200 -20 hstem
          411 262 rmoveto
          10 65 rlineto
          -155 hlineto
          28 200 -31 callgsubr
          -28 -200 rlineto
          -147 hlineto
          -10 -65 rlineto
          147 hlineto
          -27 -193 -27 callgsubr
          27 193 rlineto
          endchar
        </CharString>
        <CharString name="plusminus">
          -41 0 65 292 65 200 -20 hstem
          440 357 -47 callsubr
          -155 hlineto
          28 200 -31 callgsubr
          -28 -200 rlineto
          -147 -81 callgsubr
          147 hlineto
          -27 -193 -27 callgsubr
          27 193 rlineto
          105 -357 -47 callsubr
          -370 -53 callsubr
        </CharString>
        <CharString name="product">
          -25 21 -21 635 65 hstem
          49 hmoveto
          89 635 rlineto
          245 hlineto
          -89 -635 -27 callgsubr
          7 callgsubr
          -381 hlineto
          -97 -63 callgsubr
          endchar
        </CharString>
        <CharString name="q">
          -7 -8 callgsubr
          7 callsubr
          hstem
          55 72 vstem
          347 139 rmoveto
          -49 -29 -52 -31 -46 hhcurveto
          -72 -21 55 69 138 46 124 87 43 59 -33 -43 18 hvcurveto
          -17 -605 rmoveto
          103 736 -66 callsubr
          -31 -57 rlineto
          33 -29 -42 34 -51 hhcurveto
          -154 -64 -164 -173 -132 69 -47 78 83 32 47 16 19 hvcurveto
          -41 -293 rlineto
          endchar
        </CharString>
        <CharString name="question">
          -77 0 98 546 66 hstem
          344 74 vstem
          418 582 rmoveto
          80 -51 48 -91 -40 -49 -11 -16 -45 vhcurveto
          2 -58 rlineto
          13 36 45 6 31 hhcurveto
          62 26 -30 -44 -136 -163 -14 -24 -168 hvcurveto
          -8 -58 rlineto
          66 hlineto
          9 63 rlineto
          20 136 174 28 161 vvcurveto
          -231 -582 rmoveto
          13 98 -68 callsubr
          -13 -98 rlineto
          endchar
        </CharString>
        <CharString name="questiondown">
          -77 -102 66 546 98 hstem
          41 74 vstem
          41 26 rmoveto
          -80 51 -48 91 40 49 11 16 45 vhcurveto
          -2 58 rlineto
          -13 -36 -45 -6 -31 hhcurveto
          -62 -26 30 44 136 163 14 24 168 hvcurveto
          8 58 rlineto
          -66 hlineto
          -9 -63 rlineto
          -20 -136 -174 -28 -161 vvcurveto
          231 582 rmoveto
          -13 -98 -17 callsubr
          13 98 rlineto
          endchar
        </CharString>
        <CharString name="quotedbl">
          -154 463 -21 259 -20 hstem
          311 442 rmoveto
          -7 callsubr
          -105 hmoveto
          -7 callsubr
          endchar
        </CharString>
        <CharString name="quotedblbase">
          -75 -138 6 callgsubr
          381 96 rmoveto
          -67 24 -117 -263 45 -16 rlineto
          -42 1 callgsubr
          45 -16 rlineto
          endchar
        </CharString>
        <CharString name="quotedblleft">
          -75 507 6 callgsubr
          78 512 rmoveto
          67 -24 118 263 -46 16 rlineto
          43 -257 rmoveto
          66 -24 116 265 -46 16 rlineto
          endchar
        </CharString>
        <CharString name="quotedblright">
          -75 507 6 callgsubr
          427 741 rmoveto
          -68 24 -117 -263 46 -16 rlineto
          -43 1 callgsubr
          46 -16 rlineto
          endchar
        </CharString>
        <CharString name="quoteleft">
          -253 506 5 callgsubr
          78 510 rmoveto
          71 -25 116 267 -47 17 rlineto
          endchar
        </CharString>
        <CharString name="quoteright">
          -254 506 5 callgsubr
          249 745 rmoveto
          -69 24 -118 -267 49 -17 rlineto
          endchar
        </CharString>
        <CharString name="quotesinglbase">
          -253 -141 5 callgsubr
          204 98 rmoveto
          -70 24 -117 -267 48 -17 rlineto
          endchar
        </CharString>
        <CharString name="quotesingle">
          -327 388 -21 259 -20 hstem
          133 367 rmoveto
          37 259 -68 callsubr
          -37 -259 rlineto
          endchar
        </CharString>
        <CharString name="r">
          -9 callgsubr
          hstemhm
          hintmask 11000000
          184 382 -16 callsubr
          hintmask 10010000
          3 callsubr
          hintmask 11000000
          -52 -36 -22 -47 -59 hvcurveto
          hintmask 10100000
          -3 59 -2 callgsubr
          endchar
        </CharString>
        <CharString name="radical">
          59 21 -21 435 65 300 -20 hstem
          174 hmoveto
          95 hlineto
          336 800 rlineto
          -74 hlineto
          -295 -725 -45 425 rlineto
          -148 -81 callgsubr
          95 hlineto
          endchar
        </CharString>
        <CharString name="rcaron">
          -9 callgsubr
          126 -72 callgsubr
          hintmask 00001100
          248 -39 callgsubr
          -66 -207 -16 callsubr
          hintmask 11000000
          3 callsubr
          hintmask 10010000
          -52 -36 -22 -47 -59 hvcurveto
          hintmask 11000000
          -3 59 -29 callgsubr
          hintmask 10100000
          67 hlineto
          endchar
        </CharString>
        <CharString name="rcommaaccent">
          -160 -102 -40 114 203 endchar
        </CharString>
        <CharString name="registered">
          2 162 50 93 168 77 34 76 50 hstem
          84 54 188 38 56 54 vstem
          244 426 rmoveto
          33 12 -8 -34 10 hvcurveto
          22 -79 rlineto
          42 hlineto
          -25 94 -9 35 -5 6 -22 7 rlinecurve
          35 4 27 40 35 vvcurveto
          37 -22 21 -46 vhcurveto
          -77 hlineto
          -39 -279 rlineto
          36 hlineto
          17 121 rlineto
          59 124 rmoveto
          20 14 -6 -23 -28 -19 -20 -31 hvcurveto
          -37 hlineto
          11 77 rlineto
          -8 -388 -39 callsubr
          -123 53 -75 105 hvcurveto
          -50 callgsubr
        </CharString>
        <CharString name="ring">
          -136 552 44 132 44 hstem
          122 51 103 51 vstem
          239 772 -97 callsubr
          endchar
        </CharString>
        <CharString name="s">
          -101 -6 7 callsubr
          hstem
          90 70 127 69 vstem
          35 33 -84 callgsubr
        </CharString>
        <CharString name="scaron">
          -93 -6 7 callsubr
          100 -72 callgsubr
          45 70 127 69 hintmask 00110000
          245 -39 callgsubr
          hintmask 11001100
          -212 -556 -84 callgsubr
        </CharString>
        <CharString name="section">
          50 -157 65 737 65 hstemhm
          90 69 41 69 85 69 -1 69 hintmask 11110100
          262 436 rmoveto
          66 -52 94 -24 -80 vvcurveto
          -69 -37 -24 -47 -32 vhcurveto
          -66 53 -113 18 75 vvcurveto
          51 36 37 67 47 vhcurveto
          -183 -550 rmoveto
          -20 28 55 -23 48 hhcurveto
          hintmask 11111000
          130 83 79 100 39 -16 32 -25 24 hvcurveto
          hintmask 11110100
          76 55 33 40 75 146 -222 18 98 vvcurveto
          70 58 26 42 57 49 -24 0 vhcurveto
          19 62 rlineto
          0 -50 27 -64 -108 -72 -55 -111 -27 9 -22 13 -18 vhcurveto
          -79 -57 -53 -54 -76 vvcurveto
          hintmask 11111000
          -162 264 15 -127 vvcurveto
          -65 -46 -43 -81 -40 -47 17 26 -35 vhcurveto
          endchar
        </CharString>
        <CharString name="semicolon">
          -245 -149 -21 564 106 hstem
          228 394 rmoveto
          -20 callgsubr
          25 -305 rmoveto
          -61 24 -119 -267 42 -16 rlineto
          endchar
        </CharString>
        <CharString name="seven">
          -38 21 -21 625 75 hstem
          87 625 rmoveto
          325 hlineto
          -361 -625 rlineto
          79 hlineto
          362 625 10 75 rlineto
          -405 hlineto
          endchar
        </CharString>
        <CharString name="six">
          24 -6 65 299 65 221 66 hstem
          69 74 267 73 vstem
          307 423 rmoveto
          -63 -57 -26 -11 -24 hvcurveto
          144 29 54 114 115 hhcurveto
          65 59 -27 0 hvcurveto
          25 60 rlineto
          0 -52 33 -79 -222 -88 -261 -241 -135 51 -79 127 149 87 123 147 104 -63 55 -113 vhcurveto
          -46 -364 rmoveto
          -84 -34 57 102 28 2 31 5 34 hvcurveto
          11 18 64 36 63 hhcurveto
          72 43 -33 -77 -80 -50 -109 -99 hvcurveto
          endchar
        </CharString>
        <CharString name="slash">
          -52 -124 -21 945 -20 hstem
          495 800 rmoveto
          -71 hlineto
          -425 -945 rlineto
          71 hlineto
          endchar
        </CharString>
        <CharString name="space">
          -269 endchar
        </CharString>
        <CharString name="sterling">
          -8 0 65 285 65 233 62 hstem
          214 415 rmoveto
          22 158 rlineto
          50 7 32 25 38 hhcurveto
          14 10 -2 -4 19 hvcurveto
          17 54 rlineto
          8 -21 -18 6 -25 hhcurveto
          -57 -68 -26 -89 -12 hvcurveto
          -24 -180 rlineto
          -61 -81 callgsubr
          61 hlineto
          -49 -350 rlineto
          312 -69 callgsubr
          -245 hlineto
          39 285 rlineto
          152 -69 callgsubr
          endchar
        </CharString>
        <CharString name="summation">
          -80 0 65 570 65 hstem
          307 hmoveto
          -75 callsubr
          -249 hlineto
          221 278 -129 292 rlineto
          227 -69 callgsubr
          -307 hlineto
          -8 -60 133 -301 -223 -278 -8 -61 rlineto
          endchar
        </CharString>
        <CharString name="t">
          -183 -6 61 385 60 -60 203 hstemhm
          83 70 hintmask 11010000
          71 440 rmoveto
          61 hlineto
          -47 -332 rlineto
          -1 -9 -1 -8 -7 vvcurveto
          -70 52 -20 50 25 21 5 8 23 vhcurveto
          -2 54 rlineto
          -4 -21 -11 -2 -14 hhcurveto
          -33 -20 13 36 5 0 7 1 6 hvcurveto
          45 318 rlineto
          111 hlineto
          8 60 rlineto
          -110 hlineto
          hintmask 10110000
          21 143 -68 callsubr
          hintmask 11010000
          -21 -143 rlineto
          -62 hlineto
          endchar
        </CharString>
        <CharString name="thorn">
          -3 -8 callgsubr
          64 388 65 189 -20 hstem
          405 70 vstem
          163 -15 callsubr
          -132 -936 -17 callsubr
          39 280 rlineto
          -22 22 43 -28 51 hhcurveto
          136 86 123 220 108 -38 66 -94 -52 -44 -25 -36 -52 hvcurveto
          36 250 rlineto
          -46 -2 callsubr
          55 21 -42 -87 -136 -43 -123 -115 4 callgsubr
        </CharString>
        <CharString name="three">
          -19 -6 65 267 65 254 65 hstemhm
          356 75 -47 74 hintmask 11110000
          153 391 rmoveto
          -64 callsubr
          85 hlineto
          84 43 -45 -70 -93 -70 -59 -84 -78 -69 38 0 hvcurveto
          -30 -56 rlineto
          0 59 -47 98 161 88 97 133 82 -50 46 -71 7 vhcurveto
          hintmask 11101000
          96 19 52 90 100 vvcurveto
          85 -51 57 -117 -84 -78 -48 0 vhcurveto
          5 -58 rlineto
          0 82 41 68 72 29 -34 -57 -93 -63 -70 -83 vhcurveto
          endchar
        </CharString>
        <CharString name="threequarters">
          303 0 135 -50 50 152 50 115 53 109 48 26 -20 hstemhm
          257 48 -31 45 hintmask 10111110
          597 hmoveto
          46 hlineto
          hintmask 01111110
          12 85 rlineto
          62 -8 callsubr
          -47 -22 callgsubr
          -193 -301 -6 -41 rlineto
          182 hlineto
          hintmask 10111110
          50 603 rmoveto
          -65 hlineto
          -465 -688 rlineto
          66 hlineto
          -34 -67 callgsubr
          hintmask 10111101
          -60 callsubr
        </CharString>
        <CharString name="threesuperior">
          -112 287 50 115 53 109 48 hstemhm
          260 48 -31 45 hintmask 11110000
          164 -67 callgsubr
          hintmask 11101000
          -60 callsubr
        </CharString>
        <CharString name="tilde">
          683 8 callgsubr
          hintmask 10000000
          443 760 -43 callgsubr
          hintmask 01000000
          -91 callgsubr
          hintmask 10000000
          -70 callsubr
          endchar
        </CharString>
        <CharString name="trademark">
          123 439 -21 230 52 hstem
          585 418 rmoveto
          40 282 rlineto
          -49 hlineto
          -100 -130 -60 130 rlineto
          -51 hlineto
          -40 -282 rlineto
          48 hlineto
          27 194 57 -117 rlineto
          9 hlineto
          97 117 -27 -194 rlineto
          -401 hmoveto
          50 hlineto
          32 230 rlineto
          73 hlineto
          8 52 rlineto
          -194 hlineto
          -8 -52 rlineto
          71 hlineto
          endchar
        </CharString>
        <CharString name="two">
          -22 0 65 580 65 hstem
          392 75 vstem
          407 65 rmoveto
          -287 hlineto
          208 209 139 135 163 vvcurveto
          84 -56 54 -116 -89 -73 -28 0 vhcurveto
          5 -58 rlineto
          0 74 21 76 57 47 -19 -71 -137 -137 -120 -218 -226 vhcurveto
          -10 -72 rlineto
          370 hlineto
          endchar
        </CharString>
        <CharString name="twosuperior">
          -102 323 47 249 43 hstem
          273 58 vstem
          323 370 -6 callsubr
          -62 callgsubr
        </CharString>
        <CharString name="u">
          -5 -42 callsubr
          hstemhm
          74 68 hintmask 10110000
          339 127 rmoveto
          -48 callsubr
          hvcurveto
          hintmask 01110000
          -93 callsubr
          endchar
        </CharString>
        <CharString name="uacute">
          5 -42 callsubr
          112 -21 162 -87 callgsubr
          -121 71 -74 callgsubr
        </CharString>
        <CharString name="ucircumflex">
          5 -42 callsubr
          124 -21 129 -87 callgsubr
          -126 212 -92 callsubr
        </CharString>
        <CharString name="udieresis">
          5 -42 callsubr
          114 106 hstemhm
          83 68 hintmask 10101000
          -67 callsubr
          hintmask 01101000
          -37 callgsubr
          hintmask 00010000
          -183 467 -104 callsubr
        </CharString>
        <CharString name="ugrave">
          5 -42 callsubr
          112 -52 callsubr
          83 68 hintmask 10100100
          -67 callsubr
          hintmask 01100100
          -37 callgsubr
          hintmask 00011000
          -11 465 -82 callgsubr
        </CharString>
        <CharString name="underscore">
          -107 -236 65 hstem
          368 -236 -47 callsubr
          -386 -53 callsubr
        </CharString>
        <CharString name="uni00A0">
          -134 endchar
        </CharString>
        <CharString name="uni00AD">
          -134 257 65 hstem
          375 257 -47 callsubr
          -360 -53 callsubr
        </CharString>
        <CharString name="v">
          -93 -62 callsubr
          hstem
          443 500 rmoveto
          -77 hlineto
          -172 -420 -53 420 rlineto
          -79 hlineto
          79 9 callgsubr
          82 hlineto
          endchar
        </CharString>
        <CharString name="w">
          117 -62 callsubr
          hstem
          121 hmoveto
          82 hlineto
          140 395 36 -395 rlineto
          83 hlineto
          193 2 callgsubr
          -74 hlineto
          -150 -425 -38 425 rlineto
          -70 hlineto
          -150 -421 -41 421 rlineto
          -72 hlineto
          endchar
        </CharString>
        <CharString name="x">
          -102 -62 callsubr
          hstem
          153 500 rmoveto
          -74 hlineto
          98 -245 -174 -255 rlineto
          77 hlineto
          126 198 72 -198 rlineto
          75 hlineto
          -102 255 166 245 rlineto
          -77 hlineto
          -117 -176 rlineto
          endchar
        </CharString>
        <CharString name="y">
          -93 -4 callgsubr
          hstem
          -63 callsubr
          -77 hlineto
          endchar
        </CharString>
        <CharString name="yacute">
          -94 -4 callgsubr
          112 -52 callgsubr
          24 -20 hstemhm
          hintmask 11001000
          -63 callsubr
          hintmask 11000000
          -77 hlineto
          186 71 -55 callgsubr
        </CharString>
        <CharString name="ydieresis">
          -94 -4 callgsubr
          116 106 hstemhm
          hintmask 11000000
          hintmask 00100000
          167 596 -105 callgsubr
          hintmask 11000000
          -273 -202 rmoveto
          77 hlineto
          55 -420 174 420 rlineto
          75 hlineto
          -225 -500 -59 -131 -52 -61 -80 -44 rlinecurve
          -19 52 45 26 62 58 28 90 rlinecurve
          endchar
        </CharString>
        <CharString name="yen">
          55 -61 callsubr
          314 236 rmoveto
          167 -69 callgsubr
          1 -168 0 0 hvcurveto
          263 399 rlineto
          -73 hlineto
          -213 -334 -113 334 rlineto
          -75 hlineto
          143 -399 -22 callsubr
          -87 -22 callsubr
          -84 -27 callgsubr
          12 84 rlineto
          0 167 -45 callgsubr
          -75 callsubr
          -167 hlineto
          endchar
        </CharString>
        <CharString name="z">
          -115 0 65 370 65 hstem
          96 500 -59 callgsubr
        </CharString>
        <CharString name="zcaron">
          -123 0 65 370 65 110 -72 callgsubr
          hintmask 00110000
          268 589 -48 callgsubr
          109 -100 rlineto
          hintmask 11000000
          -130 -89 -59 callgsubr
        </CharString>
        <CharString name="zero">
          28 -6 65 586 65 hstem
          59 73 307 73 vstem
          512 482 rmoveto
          126 -38 102 -133 -248 -34 -327 -160 -126 38 -103 133 248 34 328 160 vhcurveto
          -267 -423 rmoveto
          -84 -29 77 104 156 53 249 142 84 28 -76 -104 -156 -51 -250 -143 hvcurveto
          endchar
        </CharString>
      <CharString index="0">
        hintmask 01100100
        364 -103 callsubr
        hintmask 10100100
        -89 callgsubr
        hintmask 01100100
        -82 callsubr
        hintmask 10100100
        -100 callgsubr
        return
      </CharString>
      <CharString index="1">
        16 -23 callsubr
        47 334 rlineto
        2 16 1 14 14 vvcurveto
        89 -45 43 -92 -50 -51 -7 -21 -59 vhcurveto
        -99 callsubr
        -8 -63 rmoveto
        -15 -105 rlineto
        return
      </CharString>
      <CharString index="2">
        rmoveto
        64 hlineto
        14 106 rlineto
        -64 hlineto
        148 -106 rmoveto
        63 hlineto
        14 106 rlineto
        -63 hlineto
        return
      </CharString>
      <CharString index="3">
        -44 callsubr
        -107 callsubr
        return
      </CharString>
      <CharString index="4">
        368 87 rmoveto
        -98 callgsubr
        -162 -66 -180 -146 -83 callsubr
        hvcurveto
        -235 262 -91 callsubr
        return
      </CharString>
      <CharString index="5">
        396 hmoveto
        -75 callsubr
        -272 -35 callsubr
        250 -32 callgsubr
        -250 -42 callgsubr
        272 -69 callgsubr
        -339 -68 callgsubr
        return
      </CharString>
      <CharString index="6">
        -110 -10 callsubr
        -82 hlineto
        -304 -28 callgsubr
        93 221 rlineto
        226 hlineto
        32 -221 rlineto
        -39 286 rmoveto
        -193 hlineto
        145 338 rlineto
        return
      </CharString>
      <CharString index="7">
        -97 callgsubr
        33 -21 -24 25 hvcurveto
        return
      </CharString>
      <CharString index="8">
        hstemhm
        hintmask 11100000
        -102 callgsubr
        return
      </CharString>
      <CharString index="9">
        -16 -49 -31 -13 -47 hhcurveto
        -61 -60 28 102 14 1 15 3 17 hvcurveto
        -2 20 18 -1 17 hhcurveto
        172 72 70 85 77 -51 47 -92 return
      </CharString>
      <CharString index="10">
        -89 -13 -74 -58 -67 hhcurveto
        -49 -26 39 81 121 35 146 121 43 return
      </CharString>
      <CharString index="11">
        8 callsubr
        -3 -121 -41 -141 vvcurveto
        -72 38 -48 76 52 35 13 52 63 vhcurveto
        return
      </CharString>
      <CharString index="12">
        -41 callgsubr
        82 -52 callsubr
        24 70 -107 callgsubr
        return
      </CharString>
      <CharString index="13">
        -55 -61 -36 -19 -44 hhcurveto
        -38 -21 31 44 98 105 6 69 hvcurveto
        return
      </CharString>
      <CharString index="14">
        -2 58 rlineto
        -18 -55 -25 -11 -47 hhcurveto
        -61 -60 28 102 14 2 15 2 17 hvcurveto
        return
      </CharString>
      <CharString index="15">
        -33 callsubr
        64 -47 callgsubr
        -28 callsubr
        hintmask 11001100
        -100 callsubr
        hintmask 00110000
        return
      </CharString>
      <CharString index="16">
        -78 callsubr
        -33 -61 callgsubr
        return
      </CharString>
      <CharString index="17">
        rmoveto
        81 13 38 73 83 hhcurveto
        65 22 -41 -63 -16 -2 -16 -2 -18 hvcurveto
        return
      </CharString>
      <CharString index="18">
        -51 callgsubr
        49 47 18 37 44 vhcurveto
        13 11 rlineto
        return
      </CharString>
      <CharString index="19">
        -74 callsubr
        -288 310 rmoveto
        36 14 -33 -48 -49 -17 -112 -68 -35 -14 31 46 51 15 114 69 -75 callgsubr
        112 37 113 107 67 -23 55 -76 hvcurveto
        return
      </CharString>
      <CharString index="20">
        -20 hstemhm
        83 68 hintmask 10100100
        348 127 rmoveto
        -48 callsubr
        hvcurveto
        hintmask 01100100
        -93 callsubr
        return
      </CharString>
      <CharString index="21">
        rmoveto
        55 hlineto
        106 124 -31 callsubr
        endchar
      </CharString>
      <CharString index="22">
        -36 callgsubr
        153 -62 112 -145 -220 -86 -249 -200 -152 61 -114 144 hvcurveto
        -23 callgsubr
        99 43 -101 -116 -134 -61 -233 -164 -99 -42 93 120 137 57 234 167 hvcurveto
        return
      </CharString>
      <CharString index="23">
        rmoveto
        -18 26 53 -21 52 hhcurveto
        113 77 70 105 hvcurveto
        141 -196 -19 78 vvcurveto
        51 29 25 54 vhcurveto
        51 52 -23 -1 hhcurveto
        21 64 rlineto
        2 3 -65 22 -54 hhcurveto
        -95 -65 -58 -94 hvcurveto
        -127 197 33 -101 vvcurveto
        -66 -51 -38 -65 -57 -55 30 0 vhcurveto
        endchar
      </CharString>
      <CharString index="24">
        -15 callsubr
        -73 hlineto
        -212 -324 -114 324 rlineto
        -75 hlineto
        145 -385 -44 -315 -27 callgsubr
        44 315 rlineto
        return
      </CharString>
      <CharString index="25">
        rmoveto
        -82 141 -73 -30 99 -132 rlineto
        endchar
      </CharString>
      <CharString index="26">
        hlineto
        -64 callsubr
        return
      </CharString>
      <CharString index="27">
        -98 -63 callgsubr
        return
      </CharString>
      <CharString index="28">
        -6 63 -36 -21 236 63 146 65 return
      </CharString>
      <CharString index="29">
        66 hstem
        53 75 vstem
        340 78 rmoveto
        -12 -40 -32 -6 -38 hhcurveto
        -71 -31 46 85 109 31 144 126 30 31 -7 -9 26 hvcurveto
        35 58 rlineto
        9 -27 -35 15 -53 hhcurveto
        -180 -59 -164 -159 return
      </CharString>
      <CharString index="30">
        rmoveto
        135 132 -63 30 return
      </CharString>
      <CharString index="31">
        46 328 rlineto
        154 308 rmoveto
        62 37 -31 -61 -80 -55 -72 -87 hvcurveto
        -102 hlineto
        34 244 rlineto
        return
      </CharString>
      <CharString index="32">
        -3 callsubr
        -107 -38 -122 -100 -72 28 -48 67 return
      </CharString>
      <CharString index="33">
        -77 callgsubr
        rlineto
        hintmask 00011000
        -54 callgsubr
      </CharString>
      <CharString index="34">
        -55 36 hhcurveto
        36 56 70 0 hvcurveto
        return
      </CharString>
      <CharString index="35">
        -56 callgsubr
        hstemhm
        return
      </CharString>
      <CharString index="36">
        -43 callgsubr
        hintmask 00001000
        -91 callgsubr
        hintmask 00010000
        -70 callsubr
        endchar
      </CharString>
      <CharString index="37">
        -10 -1 -12 -2 -12 vhcurveto
        -45 -325 -17 callsubr
        48 347 rlineto
        2 12 1 12 11 vvcurveto
        85 -53 43 -71 -70 -41 -33 -26 -33 vhcurveto
        -4 49 -2 callgsubr
        return
      </CharString>
      <CharString index="38">
        hlineto
        -75 callsubr
        return
      </CharString>
      <CharString index="39">
        hlineto
        -80 callgsubr
        return
      </CharString>
      <CharString index="40">
        505 rmoveto
        -7 -53 rlineto
        35 hlineto
        39 29 -11 -39 -44 -35 -21 -45 -42 -24 18 0 hvcurveto
        -18 -43 rlineto
        0 31 -25 53 74 54 50 68 40 -18 26 -42 7 vhcurveto
        return
      </CharString>
      <CharString index="41">
        hmoveto
        98 700 -57 callgsubr
        return
      </CharString>
      <CharString index="42">
        -21 500 -20 return
      </CharString>
      <CharString index="43">
        -108 100 rlineto
        endchar
      </CharString>
      <CharString index="44">
        -700 rlineto
        return
      </CharString>
      <CharString index="45">
        40 -26 26 -53 -42 -46 -14 0 vhcurveto
        -10 -40 rlineto
        0 37 11 37 23 22 -11 -33 -75 -126 -106 -41 -39 vhcurveto
        -5 -32 rlineto
        207 hlineto
        endchar
      </CharString>
      <CharString index="46">
        rlineto
        0 31 38 27 vhcurveto
        return
      </CharString>
      <CharString index="47">
        -21 700 -20 return
      </CharString>
      <CharString index="48">
        rmoveto
        -64 callsubr
        196 hlineto
        -249 -375 -8 -60 rlineto
        287 -69 callgsubr
        -207 hlineto
        249 375 8 60 rlineto
        endchar
      </CharString>
      <CharString index="49">
        -6 64 176 57 154 65 return
      </CharString>
      <CharString index="50">
        rlineto
        -67 -68 callgsubr
        return
      </CharString>
      <CharString index="51">
        -21 129 -20 return
      </CharString>
      <CharString index="52">
        -77 callgsubr
        rlineto
        hintmask 00110000
        -54 callgsubr
      </CharString>
      <CharString index="53">
        -51 callsubr
        endchar
      </CharString>
      <CharString index="54">
        27 21 -21 221 65 414 -20 return
      </CharString>
      <CharString index="55">
        -21 162 -20 return
      </CharString>
      <CharString index="56">
        -108 38 -66 94 return
      </CharString>
      <CharString index="57">
        6 50 rmoveto
        -80 -30 56 107 138 52 147 120 80 30 -56 -107 -138 -52 -147 -120 hvcurveto
        endchar
      </CharString>
      <CharString index="58">
        rmoveto
        171 hlineto
        6 48 rlineto
        -63 hlineto
        42 298 rlineto
        -45 hlineto
        return
      </CharString>
      <CharString index="59">
        rmoveto
        138 100 -13 29 -138 -75 -117 75 -21 -29 return
      </CharString>
      <CharString index="60">
        -41 callsubr
        hstemhm
        return
      </CharString>
      <CharString index="61">
        hstemhm
        hintmask 11000000
        52 -65 callsubr
        return
      </CharString>
      <CharString index="62">
        0 0 vhcurveto
        return
      </CharString>
      <CharString index="63">
        -91 callsubr
        endchar
      </CharString>
      <CharString index="64">
        -36 callsubr
        -32 -38 -26 vhcurveto
        return
      </CharString>
      <CharString index="65">
        hlineto
        31 222 rlineto
        return
      </CharString>
      <CharString index="66">
        -7 65 -37 -11 callsubr
        return
      </CharString>
      <CharString index="67">
        45 -65 callsubr
        95 200 9 callsubr
        -12 -89 -17 callsubr
        return
      </CharString>
      <CharString index="68">
        589 rmoveto
        138 100 -12 29 -139 -75 -116 75 -22 5 callsubr
        return
      </CharString>
      <CharString index="69">
        773 -48 callgsubr
        108 -100 rlineto
        return
      </CharString>
      <CharString index="70">
        -46 -331 rlineto
        -2 -17 -2 -14 -13 vvcurveto
        -46 17 -21 42 49 62 40 29 27 vhcurveto
        return
      </CharString>
      <CharString index="71">
        265 -5 rmoveto
        219 89 251 199 return
      </CharString>
      <CharString index="72">
        hlineto
        -17 callgsubr
        return
      </CharString>
      <CharString index="73">
        rlineto
        90 hlineto
        98 85 -70 -134 -167 -109 -199 -177 hvcurveto
        endchar
      </CharString>
      <CharString index="74">
        -9 -63 -11 -18 -37 -65 40 -31 rcurveline
        58 85 13 26 10 66 rrcurveto
        endchar
      </CharString>
      <CharString index="75">
        hlineto
        9 67 rlineto
        return
      </CharString>
      <CharString index="76">
        rlineto
        -68 hlineto
        return
      </CharString>
      <CharString index="77">
        -52 callsubr
        hintmask 11000000
        52 hmoveto
        65 -35 callgsubr
        -65 hlineto
        return
      </CharString>
      <CharString index="78">
        rlineto
        -43 hlineto
        -10 callgsubr
        return
      </CharString>
      <CharString index="79">
        -63 callgsubr
        70 hlineto
        return
      </CharString>
      <CharString index="80">
        rlineto
        68 hlineto
        return
      </CharString>
      <CharString index="81">
        1 10 1 13 10 vvcurveto
        86 -53 43 -70 -70 -30 -24 -26 -33 vhcurveto
        return
      </CharString>
      <CharString index="82">
        67 16 -59 80 hhcurveto
        44 43 29 53 return
      </CharString>
      <CharString index="83">
        -54 -58 callgsubr
        return
      </CharString>
      <CharString index="84">
        93 650 rmoveto
        return
      </CharString>
      <CharString index="85">
        hlineto
        -16 -115 rlineto
        -126 hlineto
        188 292 rlineto
        -52 hlineto
        return
      </CharString>
      <CharString index="86">
        17 39 hhcurveto
        13 10 -2 -4 20 hvcurveto
        18 54 rlineto
        8 -22 return
      </CharString>
      <CharString index="87">
        15 106 -31 callgsubr
        -15 -106 rlineto
        return
      </CharString>
      <CharString index="88">
        104 -6 65 641 -20 return
      </CharString>
      <CharString index="89">
        -21 42 hvcurveto
        24 62 rlineto
        return
      </CharString>
      <CharString index="90">
        70 2 callgsubr
        return
      </CharString>
      <CharString index="91">
        -73 callsubr
        94 -47 callgsubr
        hintmask 11000000
        return
      </CharString>
      <CharString index="92">
        -2 -12 hvcurveto
        -45 -321 rlineto
        66 hlineto
        49 352 rlineto
        return
      </CharString>
      <CharString index="93">
        660 688 rmoveto
        -66 hlineto
        -464 -688 rlineto
        return
      </CharString>
      <CharString index="94">
        -288 -62 callsubr
        return
      </CharString>
      <CharString index="95">
        rmoveto
        -26 -28 -32 -20 -26 hhcurveto
        return
      </CharString>
      <CharString index="96">
        hhcurveto
        -5 callsubr
        return
      </CharString>
      <CharString index="97">
        -70 9 callgsubr
        return
      </CharString>
      <CharString index="98">
        -160 21 -21 441 69 -10 -20 24 -20 return
      </CharString>
      <CharString index="99">
        -215 -21 230 return
      </CharString>
      <CharString index="100">
        57 hmoveto
        67 hlineto
        7 callgsubr
        -67 hlineto
        return
      </CharString>
      <CharString index="101">
        rlineto
        -160 -81 callgsubr
        160 hlineto
        return
      </CharString>
      <CharString index="102">
        hlineto
        11 82 rlineto
        50 7 return
      </CharString>
      <CharString index="103">
        -215 -21 736 -20 return
      </CharString>
      <CharString index="104">
        55 134 55 return
      </CharString>
      <CharString index="105">
        -29 callgsubr
        67 hlineto
        return
      </CharString>
      <CharString index="106">
        -126 hvcurveto
        -60 hlineto
        39 278 rlineto
        return
      </CharString>
      <CharString index="107">
        117 20 -21 22 -60 callgsubr
        return
      </CharString>
      <CharString index="108">
        257 rmoveto
        -66 24 -116 -265 return
      </CharString>
      <CharString index="109">
        500 rlineto
        return
      </CharString>
      <CharString index="110">
        -197 103 -21 430 -20 hstem
        return
      </CharString>
      <CharString index="111">
        -36 -43 16 33 -21 hvcurveto
        endchar
      </CharString>
      <CharString index="112">
        -21 284 -20 hstem
        return
      </CharString>
      <CharString index="113">
        -21 281 -20 hstem
        return
      </CharString>
      <CharString index="114">
        98 -10 callsubr
        return
      </CharString>
      <CharString index="115">
        65 -10 65 hstemhm
        return
      </CharString>
      <CharString index="116">
        -500 rlineto
        return
      </CharString>
      <CharString index="117">
        16 -59 rlineto
        return
      </CharString>
</ttFont>
